<?xml version="1.0" encoding="UTF-8"?>
<svg width="32px" height="32px" viewBox="0 0 32 32" version="1.1" xmlns="http://www.w3.org/2000/svg" xmlns:xlink="http://www.w3.org/1999/xlink">
    <!-- Generator: Sketch 50.2 (55047) - http://www.bohemiancoding.com/sketch -->
    <title>Rectangle 5</title>
    <desc>Created with Sketch.</desc>
    <defs></defs>
    <g id="Page-1" stroke="none" stroke-width="1" fill="none" fill-rule="evenodd">
        <g id="体温" transform="translate(-38.000000, -210.000000)">
            <g id="血压" transform="translate(38.000000, 210.000000)">
                <rect id="Rectangle-5" fill="#D8D8D8" opacity="0" x="0" y="0" width="32" height="32"></rect>
                <g id="Clip-2" transform="translate(4.000000, 3.000000)">
                    <path d="M23.0767506,8.64761534 C23.0767506,6.94078208 23.0639828,5.2338479 23.0807561,3.52721651 C23.094325,2.14988015 21.982178,1.07605034 20.7185702,1.07882601 C18.2577472,1.08422594 15.7969241,1.08503341 13.336101,1.07857368 C12.0569717,1.07519241 10.9529359,2.13357942 10.9527356,3.54059018 C10.9521849,6.93740082 10.9527857,10.3342115 10.9519345,13.7310221 C10.9518844,14.0114149 10.9947941,14.2865592 11.0880238,14.5470681 C11.4656491,15.6018216 12.2985577,16.1959657 13.4358397,16.2001544 C15.82992,16.2089861 18.2240503,16.2047469 20.6181305,16.2029301 C20.8768404,16.2027282 21.1362012,16.1762837 21.3819931,16.0901371 C22.4751137,15.7068932 23.0687394,14.8854976 23.0746977,13.717598 C23.0833097,12.027671 23.0769008,10.3376432 23.0767506,8.64761534" id="Mask" fill="#7079CB"></path>
                    <path d="M4.60430475,14.1276397 C4.60660795,14.1030119 4.61597097,14.0765169 4.6101629,14.0540088 C4.39987037,13.2418487 3.65783818,12.6847471 2.87700201,12.7513631 C1.99111972,12.8269622 1.31833385,13.4789915 1.24032534,14.3376315 C1.13287587,15.5203683 2.31612181,16.4792351 3.44609364,16.1251609 C4.25406755,15.8719696 4.77484197,15.0284192 4.6147693,14.2320552 C4.61126443,14.1972332 4.60775955,14.1624617 4.60430475,14.1276397" id="Path" fill="#7079CB"></path>
                    <path d="M24.1666667,3.22169129 C24.162611,3.98545388 24.1557014,4.74921646 24.1550505,5.51297905 C24.152497,8.31892591 24.1519963,11.1248728 24.1513454,13.9308196 C24.1513454,13.9637744 24.1600575,13.9967291 24.164714,14.0296838 C24.1555512,14.0699562 24.1433843,14.1097744 24.1376263,14.1505011 C23.9737984,15.3082569 23.4148208,16.2046459 22.4122262,16.8100946 C22.0214326,17.0460767 21.5830227,17.1450923 21.151873,17.26596 C21.0831274,17.2458743 21.0157336,17.2521321 20.9492411,17.2765075 C20.933319,17.2717637 20.9173468,17.262932 20.9013745,17.262932 C18.3924345,17.2640927 15.8835446,17.2679282 13.3746546,17.2635376 C13.1760784,17.2631843 13.1403787,17.3417609 13.1418307,17.5170317 C13.14849,18.331917 13.1432327,19.1469033 13.1452855,19.9618391 C13.1478391,20.9777331 13.1533468,21.9936272 13.1576027,23.0094708 C13.1321172,23.0941034 13.1292633,23.1795939 13.1478892,23.265892 C13.119049,23.3617282 13.0847013,23.4562522 13.0622701,23.553552 C12.8468704,24.4883966 12.2979068,25.1526894 11.4581887,25.5899326 C11.2819436,25.681681 11.0728527,25.6933893 10.9171862,25.8287913 C10.4239501,25.8303053 9.93071397,25.8318193 9.43747786,25.8333333 C9.38585605,25.7900834 9.32892686,25.7620744 9.26318541,25.7409793 C8.39668007,25.4626556 7.78532966,24.8978327 7.41446377,24.0627607 C7.15760648,23.4845136 7.16176226,22.8708389 7.16181233,22.2565081 C7.16226295,18.93459 7.16121149,15.6127224 7.16206268,12.2908043 C7.16216282,11.9164425 7.11069122,11.558331 6.93054062,11.2214155 C6.35108458,10.137997 4.7686834,9.87299655 3.96020879,10.7289617 C3.90763566,10.7443036 3.8742392,10.7792266 3.85721552,10.8310054 C3.64316777,10.9836166 3.5490869,11.2201538 3.44634398,11.4465473 C3.38570964,11.5800317 3.39076667,11.670367 3.58328447,11.7338036 C4.43572024,12.0146506 5.03545449,12.5815932 5.38033423,13.4232763 C5.56774493,13.8806053 5.55462668,14.3563041 5.54821776,14.8339712 C5.54546393,14.8692474 5.5427101,14.904574 5.53995627,14.9399007 C5.50931365,15.026451 5.47436503,15.1117397 5.4486793,15.1997536 C5.15056461,16.2220569 4.47622659,16.8800414 3.46642191,17.1300533 C2.46092323,17.3790053 1.55336078,17.1286907 0.801264587,16.3822381 C0.343027163,15.927483 0.13393631,15.3527181 0.00665926326,14.7367219 C0.0262865655,14.6676835 0.024934685,14.5993012 0.000600835783,14.5315749 C0.0241335706,14.4636972 0.0242837796,14.39587 0,14.3280933 C0.0244339885,14.2605689 0.0253352422,14.1922875 0.00665926326,14.1232995 C0.0164729144,14.0918083 0.0289402569,14.0608722 0.0356495898,14.028725 C0.287249574,12.8183828 0.980614068,12.020959 2.18313682,11.7073591 C2.30220244,11.6763221 2.31391874,11.6043566 2.33584925,11.5122045 C2.52471196,10.7193731 2.95335822,10.0951508 3.62434158,9.63539947 C3.9610099,9.40476679 4.34539459,9.29959425 4.72171807,9.16999584 C4.75621606,9.16742204 4.79066398,9.16479777 4.82516197,9.16222397 C5.09278424,9.16106324 5.36040651,9.15985204 5.62802878,9.15864084 C5.6629774,9.16146697 5.69797608,9.16429311 5.7329247,9.16711924 C6.46268982,9.34294512 7.09647144,9.67531861 7.5783918,10.2761243 C7.95050943,10.7400139 8.12630397,11.2814709 8.24306639,11.8514414 C8.22203714,11.937588 8.22419013,12.023129 8.24957544,12.1080644 C8.2443682,12.1913849 8.23460462,12.2747054 8.23455455,12.3580259 C8.23375343,14.8122705 8.23385357,17.2664647 8.23400378,19.7207093 C8.23405385,20.7797019 8.22213728,21.8389469 8.23800936,22.8976871 C8.25913875,24.3101988 9.67435736,25.2146624 10.9502822,24.6306116 C11.7644147,24.2579658 12.0871637,23.5727293 12.0856115,22.699454 C12.0824571,20.9008219 12.0812554,19.1021393 12.0875141,17.3035072 C12.0881651,17.1223823 12.0240759,17.0298265 11.8666069,16.9597787 C11.3127364,16.7135518 10.8792835,16.3208202 10.5233884,15.8299309 C10.2177132,15.4082819 10.070208,14.922086 9.92165136,14.4341237 C9.91889753,14.3992008 9.9161437,14.3643283 9.91338987,14.3294559 C9.90833283,14.061276 9.89901988,13.7930961 9.8988196,13.5249667 C9.89756786,11.5668094 9.89556507,9.60865214 9.89891974,7.65049487 C9.90152336,6.1547637 9.86291966,4.65666059 9.93341773,3.16400789 C9.99290047,1.90577287 10.679856,0.994193403 11.7717749,0.38692796 C12.1115476,0.197980747 12.492878,0.14186181 12.8462696,0 C15.6415079,0.000908400063 18.4366961,0.00181680013 21.2319844,0.00272520019 C21.2799011,0.0552610039 21.3436898,0.0699468049 21.409932,0.0836232725 C22.2967155,0.266716352 22.9880271,0.750489852 23.5196667,1.47943044 C23.8983434,1.99873247 24.0530086,2.60246525 24.1666667,3.22169129" id="Path" fill="#FFFFFF"></path>
                </g>
            </g>
        </g>
    </g>
</svg>