<?xml version="1.0" encoding="UTF-8"?>
<svg width="32px" height="32px" viewBox="0 0 32 32" version="1.1" xmlns="http://www.w3.org/2000/svg" xmlns:xlink="http://www.w3.org/1999/xlink">
    <!-- Generator: Sketch 50.2 (55047) - http://www.bohemiancoding.com/sketch -->
    <title>Rectangle 7</title>
    <desc>Created with Sketch.</desc>
    <defs></defs>
    <g id="Page-1" stroke="none" stroke-width="1" fill="none" fill-rule="evenodd">
        <g id="体温" transform="translate(-38.000000, -287.000000)">
            <g id="血糖" transform="translate(38.000000, 287.000000)">
                <rect id="Rectangle-7" fill="#D8D8D8" opacity="0" x="0" y="0" width="32" height="32"></rect>
                <g id="Fill-1" transform="translate(6.000000, 3.000000)" fill="#FFFFFF">
                    <path d="M5.90764955,24.6330069 C5.7559241,24.5896363 5.6097064,24.536468 5.50755071,24.4062907 C5.48774903,24.3971463 5.46801292,24.3879366 5.44821124,24.3787922 C5.1073863,24.2187649 4.78806783,24.0274506 4.5260562,23.7523344 C4.50572997,23.7378993 4.48540375,23.7233988 4.46507752,23.7089637 C3.8226376,23.3045193 3.31835045,22.7508249 2.84927358,22.1705464 C1.66799193,20.7093341 0.991194121,19.0241489 0.68544832,17.1829861 C0.673383721,17.1100267 0.68675969,17.0328871 0.688267765,16.9577069 C0.65581137,16.892063 0.652139535,16.8248516 0.677514535,16.7560725 C0.553721253,16.0828476 0.572473837,15.4097533 0.679547158,14.7367243 C0.681776486,14.6937455 0.684071382,14.6507668 0.686300711,14.607788 C0.643812339,14.3556634 0.738034238,14.1265958 0.807864664,13.8933479 C0.812454457,13.848279 0.816978682,13.80321 0.821502907,13.7581411 C0.986276486,12.7172454 1.38768669,11.7607395 1.89164599,10.8451875 C2.54713404,9.65458458 3.48482881,8.67325814 4.34049742,7.63308085 C6.29692959,5.25474895 8.26883592,2.88902328 10.2339231,0.517680332 C10.4977707,0.199258713 10.4960659,0.198083002 10.7486357,0.502657364 C13.1516547,3.4012412 15.5518543,6.30217646 17.9591353,9.19723316 C19.041802,10.499202 19.7928889,11.9642027 20.1613182,13.6136594 C20.2334435,13.9365226 20.3417626,14.2644805 20.3053721,14.6073308 C20.3361893,14.6731706 20.3409758,14.7402514 20.3146172,14.8087039 C20.479522,15.6204667 20.4066754,16.4377162 20.2905536,17.2396162 C20.0672274,18.7819525 19.5075349,20.2125964 18.6289173,21.5047676 C17.3433162,23.3955062 15.5959819,24.6706297 13.397012,25.3319669 C12.213501,25.6879459 11.0086802,25.7942824 9.78110724,25.690232 C9.71206363,25.7137462 9.6443314,25.7125705 9.57830394,25.679324 C8.79620317,25.6739027 8.04780459,25.4851358 7.31199516,25.2466625 C6.84881944,25.0964982 6.38354554,24.9420882 5.97426712,24.6647511 C5.95210497,24.6541697 5.92987726,24.6435883 5.90764955,24.6330069 Z M5.20882074,17.0924389 C5.10784528,16.7230698 5.14987468,16.3396575 5.09702649,15.9657162 C5.03421189,15.5218855 4.61680297,15.2496432 4.21703198,15.4052289 C3.86965019,15.5403703 3.76644541,15.844814 3.73333333,16.1836146 C3.76847804,16.2910615 3.77260885,16.3990309 3.73857881,16.5075882 C3.78637823,16.8322802 3.86414244,17.1535758 3.85220898,17.4851915 C3.88748482,17.5709531 3.8987626,17.6583476 3.87017474,17.7484201 C4.06504425,18.4125659 4.20516408,19.0912775 4.46933947,19.7368733 C4.80118152,20.5479176 5.28284755,21.2635335 5.80621512,21.9570721 C5.80621512,21.9571374 5.78457752,21.9732708 5.78457752,21.9732708 C5.78457752,21.9732708 5.80798547,21.9596848 5.80798547,21.9597501 C6.42387016,22.5687682 7.07155556,23.136963 7.84231298,23.5498987 C8.0350843,23.6531653 8.22129877,23.7572156 8.45524709,23.6849094 C8.9689761,23.5260579 9.08909755,23.0990137 8.77010691,22.5478667 C8.77010691,22.5478014 8.78315504,22.5284674 8.78315504,22.5284674 C8.78315504,22.5284674 8.76669735,22.5451233 8.76676292,22.545058 C8.31637306,22.2611239 7.8308385,22.0269616 7.46037661,21.6297673 C7.46037661,21.6297673 7.45945866,21.6278731 7.45945866,21.6278731 C7.38536628,21.6159854 7.34386143,21.5688263 7.3210436,21.5012883 C7.32097804,21.5012883 7.32091247,21.501223 7.3208469,21.5011577 C7.25318023,21.4821503 7.20905265,21.4394328 7.18925097,21.3720908 C7.19607009,21.3649059 7.20288921,21.357721 7.2097739,21.3505361 C7.20256137,21.3573944 7.19541441,21.3642527 7.18820187,21.371111 C7.12066634,21.3526262 7.0768666,21.3100394 7.05745833,21.2428279 C7.06296609,21.2366228 7.06853941,21.2303523 7.07404716,21.2241472 C7.06794929,21.2297645 7.06178585,21.2353817 7.05562242,21.240999 C6.98670995,21.222253 6.94159884,21.1804499 6.92723934,21.1089929 C6.92717377,21.1087969 6.92717377,21.1086009 6.9271082,21.108405 C6.86376906,21.0797307 6.81505168,21.0386462 6.80515084,20.9649683 C6.80508527,20.9649683 6.80429845,20.9649683 6.80429845,20.9649683 C6.13687694,20.2496137 5.71428811,19.4055188 5.4792907,18.4629255 C5.4734551,18.4185751 5.46761951,18.37429 5.46171835,18.3299396 C5.38474096,18.2111928 5.32336886,18.0878738 5.34913727,17.939669 L5.3320239,17.8070096 C5.22298353,17.6256236 5.18987145,17.4293453 5.21636111,17.2214405 L5.20882074,17.0924389 Z" id="Combined-Shape"></path>
                </g>
            </g>
        </g>
    </g>
</svg>