<?xml version="1.0" encoding="UTF-8"?>
<svg width="24px" height="24px" viewBox="0 0 24 24" version="1.1" xmlns="http://www.w3.org/2000/svg" xmlns:xlink="http://www.w3.org/1999/xlink">
    <!-- Generator: Sketch 50.2 (55047) - http://www.bohemiancoding.com/sketch -->
    <title>删除</title>
    <desc>Created with Sketch.</desc>
    <defs></defs>
    <g id="Page-1" stroke="none" stroke-width="1" fill="none" fill-rule="evenodd">
        <g id="体重" transform="translate(-532.000000, -610.000000)" fill-rule="nonzero">
            <g id="删除" transform="translate(532.000000, 610.000000)">
                <rect id="Rectangle-path" fill="#000000" opacity="0" x="0" y="0" width="24" height="24"></rect>
                <path d="M22.8675,2.571 L20.694,2.571 L18.1125,2.571 L14.718,0 L9.2835,0 L5.8875,2.571 L3.306,2.571 L1.131,2.571 C0.531,2.571 0,3.2475 0,3.8475 L0,4.935 C0,5.535 0.531,6 1.131,6 L2.142,6 L2.142,22.8675 C2.142,23.4675 2.7045,24 3.3045,24 L20.694,24 C21.294,24 21.8565,23.4675 21.8565,22.8675 L21.8565,6 L22.8675,6 C23.469,6 24,5.535 24,4.9365 L24,3.849 C24,3.2475 23.469,2.571 22.8675,2.571 Z M7.7145,19.8795 C7.7145,20.3295 7.287,20.571 6.837,20.571 L6.294,20.571 C5.844,20.571 5.571,20.3295 5.571,19.8795 L5.571,6.837 C5.571,6.387 5.844,6 6.294,6 L6.837,6 C7.287,6 7.713,6.387 7.713,6.837 L7.713,19.8795 L7.7145,19.8795 Z M13.2855,19.8795 C13.2855,20.3295 12.7215,20.571 12.2715,20.571 L11.7285,20.571 C11.2785,20.571 10.7145,20.3295 10.7145,19.8795 L10.7145,6.837 C10.7145,6.387 11.2785,6 11.7285,6 L12.273,6 C12.723,6 13.287,6.387 13.287,6.837 L13.287,19.8795 L13.2855,19.8795 Z M18.429,6.837 L18.429,19.8795 C18.429,20.3295 18.156,20.571 17.706,20.571 L17.1615,20.571 C16.7115,20.571 16.2855,20.3295 16.2855,19.8795 L16.2855,6.837 C16.2855,6.387 16.7115,6 17.163,6 L17.7075,6 C18.156,6 18.429,6.387 18.429,6.837 Z" id="Shape" fill="#FFFFFF"></path>
            </g>
        </g>
    </g>
</svg>