<?xml version="1.0" encoding="UTF-8"?>
<svg width="40px" height="40px" viewBox="0 0 40 40" version="1.1" xmlns="http://www.w3.org/2000/svg" xmlns:xlink="http://www.w3.org/1999/xlink">
    <!-- Generator: Sketch 50.2 (55047) - http://www.bohemiancoding.com/sketch -->
    <title>Rectangle-path</title>
    <desc>Created with Sketch.</desc>
    <defs></defs>
    <g id="Page-1" stroke="none" stroke-width="1" fill="none" fill-rule="evenodd">
        <g id="血压" transform="translate(-60.000000, -24.000000)" fill-rule="nonzero">
            <g id="home" transform="translate(60.000000, 24.000000)">
                <g id="首页">
                    <rect id="Rectangle-path" fill="#000000" opacity="0" x="0" y="0" width="40" height="40"></rect>
                    <path d="M36.962456,17.3808045 C37.766311,18.0560267 37.8475758,19.2304704 37.1453719,20.0029468 C36.7633908,20.422902 36.2272344,20.6378363 35.6896389,20.6378363 C35.2382649,20.6378363 34.7844926,20.4866988 34.4179411,20.1790274 L33.0933592,19.0653824 L33.0933592,30.8045216 C33.0933592,33.3723406 30.9200327,35.4624435 28.2489237,35.4624435 L12.3740469,35.4624834 C9.70345756,35.4624834 7.53009112,33.3723805 7.53009112,30.8045615 L7.53009112,19.0650226 L6.20502951,20.1790673 C5.4016142,20.8548091 4.17976264,20.7749833 3.47759869,20.0029867 C2.77543475,19.2304704 2.85673963,18.0560667 3.66063459,17.3808045 L19.0359701,4.45408888 C19.6948833,3.89590732 20.6528738,3.84270338 21.4488941,4.3479608 C21.4688406,4.36199131 21.4885872,4.37630158 21.5837227,4.45129072 L36.962456,17.3808045 Z M18.8333333,19 C17.4526215,19 16.3333333,20.1192881 16.3333333,21.5 L16.3333333,24.8333333 C16.3333333,26.2140452 17.4526215,27.3333333 18.8333333,27.3333333 L22.1666667,27.3333333 C23.5473785,27.3333333 24.6666667,26.2140452 24.6666667,24.8333333 L24.6666667,21.5 C24.6666667,20.1192881 23.5473785,19 22.1666667,19 L18.8333333,19 Z" id="Combined-Shape" fill="#38AEF9"></path>
                </g>
            </g>
        </g>
    </g>
</svg>