<?xml version="1.0" encoding="UTF-8"?>
<svg width="27px" height="27px" viewBox="0 0 27 27" version="1.1" xmlns="http://www.w3.org/2000/svg" xmlns:xlink="http://www.w3.org/1999/xlink">
    <!-- Generator: Sketch 50.2 (55047) - http://www.bohemiancoding.com/sketch -->
    <title>记录</title>
    <desc>Created with Sketch.</desc>
    <defs></defs>
    <g id="Page-1" stroke="none" stroke-width="1" fill="none" fill-rule="evenodd">
        <g id="体重" transform="translate(-309.000000, -608.000000)" fill-rule="nonzero">
            <g id="Group-8" transform="translate(216.000000, 597.000000)">
                <g id="记录" transform="translate(90.000000, 8.000000)">
                    <rect id="Rectangle-path" fill="#000000" opacity="0" x="0" y="0" width="32" height="32"></rect>
                    <path d="M3.02853693,28.7644235 C2.98943021,29.14046 3.35362826,29.4144732 3.70412565,29.2631008 C4.12166315,29.0814009 8.04404161,27.3685527 9.87021951,26.5716533 L3.77023466,22.0779707 C3.54158,24.1048699 3.06192398,28.4330804 3.02853693,28.7644235 Z M19.68694,22.9288746 C19.68694,23.4437799 20.1054086,23.8613174 20.6208459,23.8613174 L28.0858419,23.8613174 C28.6011463,23.8613174 29.0196149,23.4437799 29.0196149,22.9288746 C29.0196149,22.4158316 28.6011463,21.998161 28.0858419,21.998161 L20.6208459,21.998161 C20.1054086,21.998161 19.68694,22.4158316 19.68694,22.9288746 Z M23.5925584,8.9266699 C24.0309795,8.33235401 23.903683,7.49408661 23.3092341,7.05593161 L18.4609307,3.48471562 C17.8655507,3.04656062 17.0275493,3.17399003 16.5893943,3.76843893 L16.1927403,4.30702107 L23.1955054,9.46511901 L23.5925584,8.9266699 Z M15.6369991,5.06082328 L4.36388547,20.3538161 L11.3665175,25.5136433 L22.6398972,10.2191872 L15.6369991,5.06082328 Z M11.9458026,22.0127928 C11.6836279,22.3759267 11.1777677,22.4587958 10.8151658,22.1975522 C10.452564,21.9360425 10.3706261,21.4295173 10.6326678,21.0659843 L18.2211027,10.5441455 C18.4832774,10.1808786 18.9891376,10.0980096 19.3516064,10.3592532 C19.7140753,10.6204968 19.7962792,11.1272881 19.5339715,11.490688 L11.9458026,22.0127928 Z M28.2026301,27.4688468 L13.2826143,27.4688468 C12.7681081,27.4688468 12.3504375,27.8849211 12.3504375,28.4011566 C12.3504375,28.9157958 12.768108,29.3333333 13.2826143,29.3333333 L28.2026301,29.3333333 C28.7183334,29.3333333 29.1358709,28.9157958 29.1358709,28.4011566 C29.1358709,27.8849211 28.7183334,27.4688468 28.2026301,27.4688468 Z" id="Shape" fill="#2283E2"></path>
                </g>
            </g>
        </g>
    </g>
</svg>