<?xml version="1.0" encoding="UTF-8"?>
<svg width="60px" height="60px" viewBox="0 0 60 60" version="1.1" xmlns="http://www.w3.org/2000/svg" xmlns:xlink="http://www.w3.org/1999/xlink">
    <!-- Generator: Sketch 51.3 (57544) - http://www.bohemiancoding.com/sketch -->
    <title>Rectangle-path</title>
    <desc>Created with Sketch.</desc>
    <defs></defs>
    <g id="Page-3" stroke="none" stroke-width="1" fill="none" fill-rule="evenodd">
        <g id="记睡眠-03" transform="translate(-696.000000, -224.000000)" fill-rule="nonzero">
            <g id="温度计" transform="translate(696.000000, 224.000000)">
                <rect id="Rectangle-path" fill="#000000" opacity="0" x="0" y="0" width="60" height="60"></rect>
                <g id="Group-4" transform="translate(9.000000, 5.000000)">
                    <path d="M39.3035868,1.17156028 C36.4411407,-0.873922833 32.4471721,-0.171922713 30.4287806,2.7389571 L12.691401,28.349858 C12.4528638,28.3377546 12.2082103,28.3256511 11.9635568,28.3256511 C5.35791192,28.3256511 0,33.6269624 0,40.1628256 C0,46.6986887 5.35791192,52 11.9635568,52 C18.5692016,52 23.9271135,46.6986887 23.9271135,40.1628256 C23.9271135,38.6256874 23.6335293,37.1551182 23.0952916,35.8116352 L40.8449039,10.1825791 C42.8632954,7.27169925 42.1660329,3.21704338 39.3035868,1.17156028 Z" id="Shape" stroke="#2283E2" stroke-width="2.6"></path>
                    <path d="M22.3131303,25.705149 C21.3976616,25.051899 20.1228959,25.276149 19.4781303,26.207274 L11.8701669,37.1519673 C11.7914169,37.1470923 11.7175887,37.1470923 11.6388387,37.1470923 C9.52735437,37.1470923 7.81454187,38.8435923 7.81454187,40.9349673 C7.81454187,43.0263423 9.52735437,44.7228423 11.6388387,44.7228423 C13.7503231,44.7228423 15.4631356,43.0263423 15.4631356,40.9349673 C15.4631356,40.4425923 15.36962,39.9745923 15.1973544,39.5407173 L22.8102397,28.591149 C23.4500834,27.660024 23.2285991,26.363274 22.3131303,25.705149 Z" id="Shape" stroke="#2283E2" stroke-width="2.08" fill="#81C1FF"></path>
                    <path d="M26.158125,18.655 L22.5307031,16.28575 C22.26,16.11025 22.1861719,15.744625 22.3633594,15.4765 L22.5257813,15.23275 C22.7029688,14.964625 23.0721094,14.8915 23.3428125,15.067 L26.9702344,17.43625 C27.2409375,17.61175 27.3147656,17.977375 27.1375781,18.2455 L26.9751563,18.48925 C26.7979688,18.757375 26.43375,18.8305 26.158125,18.655 Z M24.0171094,21.955375 L20.3896875,19.58125 C20.1189844,19.40575 20.0451563,19.040125 20.2223438,18.772 L20.3847656,18.52825 C20.5619531,18.260125 20.9310938,18.187 21.2017969,18.3625 L24.8292188,20.73175 C25.0999219,20.90725 25.17375,21.272875 24.9965625,21.541 L24.8341406,21.78475 C24.6569531,22.05775 24.2878125,22.130875 24.0171094,21.955375 Z M28.3483594,15.608125 L24.7209375,13.238875 C24.4502344,13.063375 24.3764063,12.69775 24.5535938,12.429625 L24.7160156,12.185875 C24.8932031,11.91775 25.2623438,11.844625 25.5330469,12.020125 L29.1604688,14.389375 C29.4311719,14.564875 29.505,14.9305 29.3278125,15.198625 L29.1653906,15.442375 C28.9882031,15.7105 28.6190625,15.7885 28.3483594,15.608125 Z M30.2678906,12.634375 L26.6404688,10.265125 C26.3697656,10.089625 26.2959375,9.724 26.473125,9.455875 L26.6355469,9.212125 C26.8127344,8.944 27.181875,8.870875 27.4525781,9.046375 L31.08,11.415625 C31.3507031,11.591125 31.4245313,11.95675 31.2473438,12.224875 L31.0849219,12.468625 C30.9077344,12.73675 30.5385938,12.809875 30.2678906,12.634375 Z" id="Shape" fill="#2283E2"></path>
                </g>
            </g>
        </g>
    </g>
</svg>