<?xml version="1.0" encoding="UTF-8"?>
<svg width="60px" height="60px" viewBox="0 0 60 60" version="1.1" xmlns="http://www.w3.org/2000/svg" xmlns:xlink="http://www.w3.org/1999/xlink">
    <!-- Generator: Sketch 51.3 (57544) - http://www.bohemiancoding.com/sketch -->
    <title>Rectangle 19</title>
    <desc>Created with Sketch.</desc>
    <defs></defs>
    <g id="Page-3" stroke="none" stroke-width="1" fill="none" fill-rule="evenodd">
        <g id="记睡眠-02" transform="translate(-954.000000, -309.000000)">
            <g id="Group-21" transform="translate(954.000000, 309.000000)">
                <rect id="Rectangle-19" x="0" y="0" width="60" height="60"></rect>
                <ellipse id="Oval-Copy-7" fill="#81C1FF" cx="30" cy="55" rx="14" ry="5"></ellipse>
                <circle id="Oval-8-Copy-4" stroke="#2283E2" stroke-width="2.5" cx="30" cy="28" r="26"></circle>
                <path d="M12.7969727,21.3065305 C14.6690534,19.9731972 16.541134,19.3065305 18.4132147,19.3065305 C20.2852954,19.3065305 22.157376,19.9731972 24.0294567,21.3065305" id="Path-49-Copy-3" stroke="#2283E2" stroke-width="2.5" stroke-linecap="round" stroke-linejoin="round"></path>
                <path d="M34.7969727,21.3065305 C36.6690534,19.9731972 38.541134,19.3065305 40.4132147,19.3065305 C42.2852954,19.3065305 44.157376,19.9731972 46.0294567,21.3065305" id="Path-49-Copy-2" stroke="#2283E2" stroke-width="2.5" stroke-linecap="round" stroke-linejoin="round"></path>
                <path d="M16,36 L44,36 C42.3036854,44.1020548 37.6370188,48.1020548 30,48 C22.3629812,47.8953414 17.6963146,43.8953414 16,36 Z" id="Path-50-Copy" stroke="#2283E2" stroke-width="2.5" fill="#81C1FF" stroke-linecap="round" stroke-linejoin="round"></path>
                <ellipse id="Oval-11" fill="#81C1FF" cx="46" cy="30" rx="4" ry="2"></ellipse>
                <ellipse id="Oval-11-Copy" fill="#81C1FF" cx="14" cy="30" rx="4" ry="2"></ellipse>
            </g>
        </g>
    </g>
</svg>