<?xml version="1.0" encoding="UTF-8"?>
<svg width="60px" height="60px" viewBox="0 0 60 60" version="1.1" xmlns="http://www.w3.org/2000/svg" xmlns:xlink="http://www.w3.org/1999/xlink">
    <!-- Generator: Sketch 51.3 (57544) - http://www.bohemiancoding.com/sketch -->
    <title>Rectangle 3</title>
    <desc>Created with Sketch.</desc>
    <defs></defs>
    <g id="Page-3" stroke="none" stroke-width="1" fill="none" fill-rule="evenodd">
        <g id="记睡眠-03" transform="translate(-524.000000, -380.000000)">
            <g id="Group" transform="translate(524.000000, 380.000000)">
                <rect id="Rectangle-3" x="0" y="0" width="60" height="60"></rect>
                <path d="M3.20249938,45.5445896 L3.20249938,46.9313143 C3.20249938,48.0685315 4.12439608,48.9904282 5.26161328,48.9904282 L5.26161328,48.9904282 C6.39883049,48.9904282 7.32072719,48.0685315 7.32072719,46.9313143 L7.32072719,45.5445896 L3.20249938,45.5445896 Z" id="Path-37" fill="#2283E2"></path>
                <path d="M51.5661357,45.5445896 L51.5661357,46.9313143 C51.5661357,48.0685315 52.4880324,48.9904282 53.6252496,48.9904282 L53.6252496,48.9904282 C54.7624669,48.9904282 55.6843635,48.0685315 55.6843635,46.9313143 L55.6843635,45.5445896 L51.5661357,45.5445896 Z" id="Path-37-Copy" fill="#2283E2"></path>
                <path d="M12.5,22.5 C18.3333333,21.1666667 24.1666667,20.5 30,20.5 C35.8333333,20.5 41.6666667,21.1666667 47.5,22.5 L55.737069,30.3448276 C56.2369819,30.8209351 56.25628,31.612156 55.7801724,32.112069 C55.544244,32.3597938 55.2170962,32.5 54.875,32.5 L5.125,32.5 C4.43464406,32.5 3.875,31.9403559 3.875,31.25 C3.875,30.9079038 4.01520622,30.580756 4.26293103,30.3448276 L12.5,22.5 Z" id="Path-35" stroke="#2283E2" stroke-width="2.5" fill="#81C1FF"></path>
                <path d="M2,35 L2,42 C2,43.3807119 3.11928813,44.5 4.5,44.5 L55.5,44.5 C56.8807119,44.5 58,43.3807119 58,42 L58,35 C58,33.6192881 56.8807119,32.5 55.5,32.5 L4.5,32.5 C3.11928813,32.5 2,33.6192881 2,35 Z" id="Path-36" stroke="#2283E2" stroke-width="2.5"></path>
                <path d="M12.811063,22.6701276 L12.811063,13.8725696 C12.811063,12.4918577 13.9303512,11.3725696 15.311063,11.3725696 L45.5056123,11.3725696 C46.8863242,11.3725696 48.0056123,12.4918577 48.0056123,13.8725696 L48.0056123,22.6701276 C42.1398541,21.3367943 36.2740959,20.6701276 30.4083377,20.6701276 C24.5425795,20.6701276 18.6768212,21.3367943 12.811063,22.6701276 Z" id="Path-38" stroke="#2283E2" stroke-width="2.5"></path>
            </g>
        </g>
    </g>
</svg>