<?xml version="1.0" encoding="UTF-8"?>
<svg width="60px" height="60px" viewBox="0 0 60 60" version="1.1" xmlns="http://www.w3.org/2000/svg" xmlns:xlink="http://www.w3.org/1999/xlink">
    <!-- Generator: Sketch 51.3 (57544) - http://www.bohemiancoding.com/sketch -->
    <title>Rectangle 10</title>
    <desc>Created with Sketch.</desc>
    <defs></defs>
    <g id="Page-3" stroke="none" stroke-width="1" fill="none" fill-rule="evenodd">
        <g id="记睡眠-03" transform="translate(-352.000000, -380.000000)">
            <g id="炸弹" transform="translate(352.000000, 380.000000)">
                <rect id="Rectangle-10" fill="#D8D8D8" opacity="0" x="0" y="0" width="60" height="60"></rect>
                <g id="Group-11" transform="translate(5.000000, 5.000000)">
                    <path d="M6.93855926,23.9440948 C7.2122725,24.1071794 7.53974775,24.1550799 7.84888385,24.0772498 C8.15801996,23.9994196 8.42347054,23.8022403 8.58679061,23.5291253 C8.93808473,22.9426158 9.34254861,22.3894632 9.79510446,21.8766119 C10.0787665,21.555017 10.1688654,21.1069121 10.0314617,20.7010942 C9.89405805,20.2952763 9.55002672,19.9933986 9.12896101,19.9091756 C8.70789529,19.8249527 8.2737651,19.9711799 7.99010307,20.2927748 C7.44063709,20.9159871 6.94939801,21.5879595 6.52250918,22.3003157 C6.1823262,22.8688274 6.36859304,23.6047521 6.93855926,23.9440948 Z M15.5627983,40.2453886 C9.51865351,38.7494092 5.82142273,32.6276255 7.3211261,26.5988372 C7.39795357,26.2902613 7.34869856,25.9638823 7.18420211,25.6915364 C7.01970566,25.4191905 6.75345007,25.2231995 6.4440383,25.1467011 C6.13466132,25.0701207 5.80745455,25.1192683 5.53441141,25.2833303 C5.26136828,25.4473923 5.06485907,25.7129272 4.98812057,26.0215108 C3.16903908,33.3332276 7.65321062,40.7579777 14.9841401,42.5725056 C15.0791057,42.5961577 15.1766179,42.608121 15.2744994,42.6081283 C15.8822553,42.6082485 16.3944714,42.1558593 16.4678947,41.554122 C16.5413181,40.9523847 16.1528424,40.3906643 15.5627983,40.2453886 Z" id="Shape" fill="#009FE8" fill-rule="nonzero"></path>
                    <ellipse id="Oval-2" fill="#81C1FF" cx="49.2708333" cy="27.4285714" rx="2.29166667" ry="2.28571429"></ellipse>
                    <path d="M53.6972035,27.6977964 L52.1284732,26.8920055 L53.4483976,25.7241655 C53.6192223,25.572958 53.6698263,25.3276131 53.5727162,25.1214289 C53.4756061,24.9152448 53.2539708,24.797456 53.0282266,24.8320582 L51.6318918,25.0464791 C53.1745224,21.9819051 52.8439832,18.1600075 50.4855648,15.3821271 C50.3260865,15.1939712 50.1120406,15.0597622 49.8729083,14.997985 C49.7247716,14.9354367 49.5655225,14.9032851 49.4046588,14.903448 C45.8387851,14.903448 42.9532211,12.0380524 42.9408581,8.5055888 C42.9400748,8.32662418 42.8988748,8.15013524 42.8203186,7.98923191 C42.6295503,5.93579261 41.7339179,4.03169432 40.2489815,2.56106186 C38.5808319,0.908719714 36.3700829,5.35714288e-08 34.0204216,0 C31.6269746,0.00822058929 29.4100442,0.933210214 27.7460156,2.60456255 C26.2567864,4.10054191 25.3721434,6.03443984 25.2083333,8.11271229 L27.5849529,8.70099948 C27.6144868,7.03821032 28.2728177,5.47783623 29.4515977,4.2940687 C30.663174,3.07741875 32.2772353,2.40384273 33.9967259,2.39784852 C35.7306399,2.39784852 37.3405803,3.05943616 38.5549039,4.26255638 C39.7748939,5.47098573 40.450224,7.08085473 40.4560621,8.79587904 C40.4568588,8.97515531 40.4981779,9.15194464 40.576945,9.31309227 C40.9844096,13.6448388 44.5430715,17.0714621 48.9316014,17.2901645 C50.3935289,19.2798941 50.5420569,21.8786337 49.4745442,23.9841368 L48.8392222,22.5318295 C48.7477008,22.3231677 48.52941,22.1994678 48.3028452,22.227878 C48.0762804,22.2562883 47.8954823,22.4300323 47.858594,22.654796 L47.575103,24.3919132 L46.0535926,23.5008336 C45.8566195,23.3854919 45.6070154,23.4132967 45.4404084,23.5691394 C45.2738015,23.7249822 45.2299817,23.9716436 45.3327597,24.1750947 L46.1269122,25.7467721 L44.3706761,25.9178635 C44.1434286,25.9401065 43.9579806,26.1089075 43.9150477,26.3325916 C43.8721149,26.5562757 43.9819439,26.7814567 44.1848873,26.8858401 L45.7536176,27.6916309 L44.4336932,28.8596423 C44.2628686,29.0108497 44.2122645,29.2561946 44.3093746,29.4623788 C44.4064847,29.6685629 44.6281201,29.7863517 44.8538642,29.7517495 L46.5979091,29.4840659 L46.2184329,31.2026867 C46.1689769,31.4252907 46.272574,31.6537676 46.4728262,31.7637351 C46.6730783,31.8737026 46.9220445,31.8388341 47.084188,31.6781119 L48.3371461,30.4391977 L49.0428686,32.0521495 C49.134183,32.2610379 49.3525381,32.3849763 49.5792322,32.3565894 C49.8059263,32.3282025 49.9867877,32.1542738 50.0234968,31.9293542 L50.3069878,30.1920657 L51.8286699,31.0831454 C52.0256358,31.1983379 52.2751265,31.1704618 52.4416551,31.0146552 C52.6081837,30.8588486 52.6520089,30.6122941 52.5493311,30.4088842 L51.7551786,28.8373781 L53.5114148,28.6661155 C53.7389065,28.644099 53.9246504,28.4752033 53.9676101,28.2512998 C54.0105699,28.0273964 53.9004715,27.8020327 53.6972035,27.6977964 Z M50.9065944,27.8875554 C50.7375239,27.9041279 50.5875067,28.0027511 50.505578,28.1511886 C50.4236493,28.299626 50.4203377,28.478802 50.4967259,28.6301503 L50.8423753,29.3138308 L50.1802668,28.9260921 C50.0337235,28.840452 49.8542886,28.832309 49.7005535,28.9043221 C49.5468184,28.9763351 49.4385165,29.1192607 49.411012,29.2864288 L49.2875535,30.0422109 L48.9805384,29.3403766 C48.8986682,29.1530525 48.7132201,29.0319835 48.5083396,29.0321037 C48.3738917,29.0321037 48.2430497,29.0848526 48.1456909,29.180931 L47.6005159,29.7200659 L47.7655279,28.9723331 C47.8020514,28.8068276 47.7544003,28.6340037 47.6381632,28.5103989 C47.5219262,28.3867941 47.3520555,28.3283085 47.1841224,28.3540749 L46.4249985,28.4705335 L46.9995356,27.9622259 C47.1264693,27.8496471 47.1896489,27.6819237 47.1684411,27.5138311 C47.1472332,27.3457386 47.0443606,27.1988568 46.8934197,27.121155 L46.2107061,26.7705803 L46.9749813,26.6959098 C47.1440916,26.6794162 47.2941692,26.5808055 47.3761134,26.4323401 C47.4580575,26.2838747 47.4613261,26.1046546 47.3848499,25.9533149 L47.0392003,25.2696343 L47.7011372,25.657373 C47.8477063,25.7430022 48.0271547,25.7511416 48.1809111,25.6791346 C48.3346675,25.6071276 48.4430054,25.4642125 48.4705637,25.2970364 L48.5940222,24.5412543 L48.9010373,25.2430886 C48.9689978,25.3984504 49.1094571,25.5103465 49.2763924,25.5421132 C49.4433213,25.5741374 49.6153386,25.5219036 49.7360565,25.4025342 L50.0499399,25.092035 C50.1017959,25.1250887 50.1555407,25.1554022 50.2104875,25.184003 L50.1162195,25.6109608 C50.079696,25.7764663 50.1273471,25.9492902 50.2435842,26.072895 C50.3598212,26.1964998 50.5296919,26.2549855 50.697625,26.2292191 L51.4565772,26.1127604 L50.8822118,26.6208967 C50.755278,26.7334755 50.6920984,26.901199 50.7133063,27.0692915 C50.7345141,27.2373841 50.8373867,27.3842659 50.9883277,27.4619677 L51.6712131,27.8127136 L50.9065944,27.8875554 Z" id="Shape" stroke="#2283E2" stroke-width="0.571428571" fill="#2283E2" fill-rule="nonzero"></path>
                    <ellipse id="Oval-15" stroke="#2283E2" stroke-width="2.85714286" cx="18.3333333" cy="29.7142857" rx="18.3333333" ry="18.2857143"></ellipse>
                    <path d="M17.6769016,10.9651618 L20.1865642,7.20834849 C20.7712654,6.33308608 21.8781034,5.97029357 22.8674698,6.32961783 L29.3078021,8.66865789 C30.3669951,9.05334221 30.9877793,10.152589 30.7702554,11.2582812 L30.0504508,14.9171082 C28.0540341,13.9464547 26.0246966,13.1317991 23.9624384,12.4731414 C21.9001802,11.8144836 19.8050013,11.3118238 17.6769016,10.9651618 Z" id="Path-57" stroke="#2283E2" stroke-width="2.28571429" fill="#81C1FF"></path>
                </g>
            </g>
        </g>
    </g>
</svg>