<?xml version="1.0" encoding="UTF-8"?>
<svg width="60px" height="60px" viewBox="0 0 60 60" version="1.1" xmlns="http://www.w3.org/2000/svg" xmlns:xlink="http://www.w3.org/1999/xlink">
    <!-- Generator: Sketch 51.3 (57544) - http://www.bohemiancoding.com/sketch -->
    <title>Rectangle 8</title>
    <desc>Created with Sketch.</desc>
    <defs></defs>
    <g id="Page-3" stroke="none" stroke-width="1" fill="none" fill-rule="evenodd">
        <g id="记睡眠-03" transform="translate(-352.000000, -226.000000)">
            <g id="Group-22" transform="translate(352.000000, 226.000000)">
                <rect id="Rectangle-8" x="0" y="0" width="60" height="60"></rect>
                <path d="M29.9993841,12.6666667 C22.6472671,12.6666667 16.6666667,18.6070815 16.6666667,25.9091925 C16.6666667,28.8137832 18.3941493,31.4282159 19.9177829,33.7338288 C20.8157044,35.0925151 21.6631255,36.3759529 21.8534257,37.3349193 C22.3892225,40.0432621 22.6959199,46.466471 22.6989992,46.5308837 C22.7199384,46.9799665 23.0980754,47.3333333 23.5587375,47.3333333 L36.4412625,47.3333333 C36.6777521,47.3333333 36.9031563,47.2382193 37.0663587,47.0702647 C37.2289453,46.9017081 37.3133179,46.6759627 37.3003849,46.4454015 C37.1402617,43.6305069 37.2505004,38.6388247 38.2290993,37.2259596 C38.3984604,36.9815525 38.5930716,36.7106581 38.804311,36.4144801 C40.4979215,34.0516783 43.3333333,30.0948131 43.3333333,25.9085905 C43.3321016,18.6076834 37.3515012,12.6666667 29.9993841,12.6666667 Z" id="Shape" stroke="#2283E2" stroke-width="2.5" fill-rule="nonzero" transform="translate(30.000000, 30.000000) scale(1, -1) translate(-30.000000, -30.000000) "></path>
                <path d="M35.3333333,2 L35.3333333,8.49272755 C35.3333333,9.71390013 34.6834796,10.7389414 33.7848191,11.1138102 C33.618291,12.0020993 32.9684373,12.6666667 32.1880216,12.6666667 L27.8119784,12.6666667 C27.0315627,12.6666667 26.381709,12.0026991 26.2151809,11.1138102 C25.3165204,10.7389414 24.6666667,9.71390013 24.6666667,8.49272755 L24.6666667,2 L35.3333333,2 Z" id="Path" stroke="#2283E2" stroke-width="2.5" fill="#81C1FF" transform="translate(30.000000, 7.333333) scale(1, -1) translate(-30.000000, -7.333333) "></path>
                <path d="M30,52.6666667 L30,57.1126515 M18.001298,48.2994963 L15.143474,51.7053182 M11.6169219,37.2414326 L7.23848166,38.0134698 M13.8341925,24.6666667 L9.98385669,22.4436743 M46.1658075,24.6666667 L50.0161433,22.4436743 M48.3830781,37.2414326 L52.7615183,38.0134698 M41.998702,48.2994963 L44.856526,51.7053182" id="Path-51" stroke="#2283E2" stroke-width="2.66666667" stroke-linecap="round" stroke-linejoin="round"></path>
                <path d="M30,24.5833077 L30,35.2883741" id="Path-52" stroke="#2283E2" stroke-width="2.66666667" stroke-linecap="round"></path>
                <path d="M24.5387371,36.6666667 L35.5421162,36.6666667" id="Path-54" stroke="#2283E2" stroke-width="2.66666667" stroke-linecap="round"></path>
            </g>
        </g>
    </g>
</svg>