<?xml version="1.0" encoding="UTF-8"?>
<svg width="60px" height="60px" viewBox="0 0 60 60" version="1.1" xmlns="http://www.w3.org/2000/svg" xmlns:xlink="http://www.w3.org/1999/xlink">
    <!-- Generator: Sketch 51.3 (57544) - http://www.bohemiancoding.com/sketch -->
    <title>Rectangle-path</title>
    <desc>Created with Sketch.</desc>
    <defs></defs>
    <g id="Page-3" stroke="none" stroke-width="1" fill="none" fill-rule="evenodd">
        <g id="记睡眠-03" transform="translate(-524.000000, -224.000000)">
            <g id="声音" transform="translate(524.000000, 224.000000)">
                <rect id="Rectangle-path" fill="#000000" fill-rule="nonzero" opacity="0" x="0" y="0" width="60" height="60"></rect>
                <g id="Group-12" transform="translate(3.000000, 6.000000)" stroke="#2283E2">
                    <path d="M17.042478,1.39010794 C15.7326479,0.078714352 13.7612801,-0.313387556 12.0493255,0.396977878 C10.3354335,1.10568705 9.21777276,2.77765447 9.21814078,4.63229572 L9.21661291,25.651512 L4.44958847,30.4215922 C3.58953243,31.2807609 3.10628331,32.4465764 3.10628331,33.6622521 C3.10628331,34.8779277 3.58953243,36.0437432 4.44958847,36.9029119 L15.1448356,47.598159 C16.0401805,48.493504 17.212074,48.9411765 18.3854954,48.9411765 C19.5589168,48.9411765 20.7308103,48.493504 21.6261553,47.598159 L26.3947076,42.8296067 L47.412396,42.8296067 C49.2687853,42.8296067 50.9402996,41.7142452 51.6461859,39.9999499 C52.3570684,38.2870605 51.964978,36.3145445 50.6530558,35.0037416 L17.042478,1.39010794 Z" id="Path" stroke-width="2.54901961"></path>
                    <path d="M9.21376301,2.92047058 L48.8720897,42.5151758" id="Path-3" stroke-width="2.03921569"></path>
                    <path d="M8.84200247,25.8143249 L26.198497,43.3174428 L19.8863662,49.6901098 C19.0954444,50.4886169 17.8075463,50.4966389 17.0067388,49.7080464 L2.189176,35.1165008 C1.38671616,34.3262812 1.37679353,33.0351594 2.16701318,32.2326995 C2.18006431,32.2194462 2.19329616,32.2063721 2.20670503,32.1934809 L8.84200247,25.8143249 Z" id="Path-4" stroke-width="2.03921569" fill="#81C1FF"></path>
                    <path d="M30.7628894,6.86449752 C35.2040653,7.57552449 38.6142631,9.14651121 40.9934827,11.5774577 C43.3727023,14.0084042 44.7209436,17.2993104 45.0382068,21.4501764" id="Path-53" stroke-width="2.54901961" stroke-linecap="round"></path>
                    <path d="M30.0423452,1.44712157 C36.4405708,2.10293442 41.3303614,4.13423245 44.7117171,7.54101567 C48.0930727,10.9477989 49.9659935,15.7300673 50.3304792,21.8878209" id="Path-55" stroke-width="2.54901961" stroke-linecap="round"></path>
                </g>
            </g>
        </g>
    </g>
</svg>