<?xml version="1.0" encoding="UTF-8"?>
<svg width="60px" height="60px" viewBox="0 0 60 60" version="1.1" xmlns="http://www.w3.org/2000/svg" xmlns:xlink="http://www.w3.org/1999/xlink">
    <!-- Generator: Sketch 51.3 (57544) - http://www.bohemiancoding.com/sketch -->
    <title>Rectangle-path</title>
    <desc>Created with Sketch.</desc>
    <defs></defs>
    <g id="Page-3" stroke="none" stroke-width="1" fill="none" fill-rule="evenodd">
        <g id="记睡眠-03" transform="translate(-868.000000, -380.000000)">
            <g id="套餐" transform="translate(868.000000, 380.000000)">
                <rect id="Rectangle-path" fill="#000000" fill-rule="nonzero" opacity="0" x="0" y="0" width="60" height="60"></rect>
                <g id="Group-7" transform="translate(4.000000, 4.000000)">
                    <path d="M26.2862386,49.7577982 C26.2861244,50.3557205 26.6050467,50.9082723 27.1228436,51.2072665 C27.6406405,51.5062606 28.2786256,51.5062606 28.7964225,51.2072665 C29.3142194,50.9082723 29.6331416,50.3557205 29.6330275,49.7577982 C29.6331416,49.1598759 29.3142194,48.607324 28.7964225,48.3083299 C28.2786256,48.0093358 27.6406405,48.0093358 27.1228436,48.3083299 C26.6050467,48.607324 26.2861244,49.1598759 26.2862386,49.7577982 Z M32.2752294,48.4366973 C32.2751153,49.0346196 32.5940375,49.5871714 33.1118344,49.8861655 C33.6296313,50.1851596 34.2676164,50.1851596 34.7854133,49.8861655 C35.3032102,49.5871714 35.6221324,49.0346196 35.6220183,48.4366973 C35.6221324,47.8387749 35.3032102,47.2862231 34.7854133,46.987229 C34.2676164,46.6882349 33.6296313,46.6882349 33.1118344,46.987229 C32.5940375,47.2862231 32.2751153,47.8387749 32.2752294,48.4366973 Z M37.5155963,45.6623853 C37.5155963,46.5865756 38.2648005,47.3357798 39.1889908,47.3357798 C40.1131811,47.3357798 40.8623853,46.5865756 40.8623853,45.6623853 C40.8623853,44.7381951 40.1131811,43.9889908 39.1889908,43.9889908 C38.2648005,43.9889908 37.5155963,44.7381951 37.5155963,45.6623853 Z M22.1908257,48.1284403 C11.6660551,46.5431192 3.69541287,37.2954128 3.69541287,26.6385321 C3.69541287,14.6605505 13.427523,4.88440367 25.4495413,4.88440367 C28.9284403,4.88440367 32.2311926,5.67706423 35.3137615,7.26238535 C36.0183486,7.61467893 36.8550459,7.35045874 37.2513762,6.64587158 C37.6036698,5.94128442 37.3394496,5.10458719 36.6348624,4.70825688 C33.1559633,2.94678898 29.4128441,2.02201835 25.4495413,2.02201835 C11.8862385,2.02201835 0.877064216,13.0311926 0.877064216,26.5944954 C0.877064216,38.6605504 9.86055048,49.1412844 21.7944954,50.9027523 L22.0146789,50.9027523 C22.7192661,50.9027523 23.3357798,50.3743119 23.4238532,49.6697248 C23.5119266,48.9651376 22.9834863,48.2165138 22.1908257,48.1284403 Z M25.4055046,14.6605504 C18.8,14.6605504 13.427523,20.0330275 13.427523,26.6385321 C13.427523,33.2440368 18.8,38.6165138 25.4055046,38.6165138 C32.0110092,38.6165138 37.3834862,33.2440367 37.3834862,26.6385321 C37.3834862,20.0330275 32.0110092,14.6605505 25.4055046,14.6605504 Z M50.2862386,1.31743119 C49.493578,0.524770634 48.612844,0.304587177 48.1724771,0.216513781 C47.9082569,0.172477114 47.6,0.128440386 47.2917431,0.128440386 C46.5431193,0.128440386 45.9266055,0.304587177 45.706422,0.348623844 C41.3027523,1.75779817 38.572477,8.18715597 38.572477,17.1266055 C38.572477,22.8954129 39.3211009,24.5247706 40.906422,26.6825688 C41.4348624,27.387156 41.9633027,28.1357798 42.5798165,29.6770642 C42.6238532,29.7651376 42.9321101,30.7779817 42.9321101,32.7155963 L42.9321101,47.8642202 C42.9321101,49.6697247 44.3853211,51.1229358 46.1908257,51.1229358 L47.8201835,51.1229358 C49.1853211,51.1229358 50.374312,50.2422018 50.8146789,48.8770642 C50.9908257,48.3045872 51.0788991,47.6440367 51.0788991,46.6311927 L51.1229358,3.29908256 L51.1229358,2.11009175 L50.2862386,1.31743119 Z M48.2605505,46.6752294 C48.2605505,48.1284403 48.0844037,48.3045871 47.8642202,48.3045871 L46.2348624,48.3045871 C46.0146789,48.3045871 45.8385321,48.1284403 45.8385321,47.9082569 L45.8385321,32.759633 C45.8385321,29.9853211 45.2660551,28.6642202 45.266055,28.6642202 C43.1082569,23.3357798 41.4788991,25.5376147 41.4788991,17.1706422 C41.4788991,8.80366979 43.9449542,3.95963305 46.6311927,3.12293577 C46.6311927,3.12293577 46.9394495,3.03486237 47.3357798,3.03486237 C47.4678899,3.03486237 47.6,3.03486237 47.7321101,3.0788991 C47.7321101,3.0788991 48.0844037,3.12293577 48.3486239,3.38715595 L48.2605505,46.6752294 Z" id="Shape" fill="#2283E2" fill-rule="nonzero"></path>
                    <path d="M25.4055046,35.7541285 C20.3853211,35.7541285 16.2899083,31.6587156 16.2899083,26.6385321 C16.2899083,21.6183487 20.3853211,17.5229358 25.4055046,17.5229358 C30.4256881,17.5229358 34.5211009,21.6183487 34.5211009,26.6385321 C34.5651376,31.6587156 30.4697248,35.7541285 25.4055046,35.7541285 Z" id="Path" fill="#81C1FF"></path>
                </g>
            </g>
        </g>
    </g>
</svg>