<?xml version="1.0" encoding="UTF-8"?>
<svg width="60px" height="60px" viewBox="0 0 60 60" version="1.1" xmlns="http://www.w3.org/2000/svg" xmlns:xlink="http://www.w3.org/1999/xlink">
    <!-- Generator: Sketch 51.3 (57544) - http://www.bohemiancoding.com/sketch -->
    <title>Rectangle 14</title>
    <desc>Created with Sketch.</desc>
    <defs></defs>
    <g id="Page-3" stroke="none" stroke-width="1" fill="none" fill-rule="evenodd">
        <g id="记睡眠-02" transform="translate(-266.000000, -309.000000)">
            <g id="Group-17" transform="translate(266.000000, 309.000000)">
                <rect id="Rectangle-14" x="0" y="0" width="60" height="60"></rect>
                <ellipse id="Oval" fill="#81C1FF" cx="30" cy="55" rx="14" ry="5"></ellipse>
                <circle id="Oval-8" stroke="#2283E2" stroke-width="2.5" cx="30" cy="28" r="26"></circle>
                <g id="Group-16" transform="translate(36.000000, 18.000000)" stroke="#2283E2" stroke-width="2.5">
                    <path d="M1.09107419,4.80727889 L11.7732412,0.166958262" id="Path-42" stroke-linecap="round" stroke-linejoin="round"></path>
                    <path d="M0.480041492,11.1293469 C1.30336155,13.2861531 2.66880503,14.1339361 4.57637192,13.672696 C6.48393881,13.2114558 7.55611271,11.2005325 7.79289363,7.63992599 L0.480041492,11.1293469 Z" id="Path-43" fill="#81C1FF"></path>
                </g>
                <g id="Group-16-Copy" transform="translate(18.000000, 25.000000) scale(-1, 1) translate(-18.000000, -25.000000) translate(12.000000, 18.000000)" stroke="#2283E2" stroke-width="2.5">
                    <path d="M1.09107419,4.80727889 L11.7732412,0.166958262" id="Path-42" stroke-linecap="round" stroke-linejoin="round"></path>
                    <path d="M0.480041492,11.1293469 C1.30336155,13.2861531 2.66880503,14.1339361 4.57637192,13.672696 C6.48393881,13.2114558 7.55611271,11.2005325 7.79289363,7.63992599 L0.480041492,11.1293469 Z" id="Path-43" fill="#81C1FF"></path>
                </g>
                <path d="M25.5235175,45.6428596 C26.561044,42.9334119 28.1777147,41.5688218 30.3735296,41.5490895 C32.5693444,41.5293572 34.1519768,42.8939472 35.1214267,45.6428596" id="Path-44" stroke="#2283E2" stroke-width="2.5" stroke-linecap="round" stroke-linejoin="round"></path>
            </g>
        </g>
    </g>
</svg>