<?xml version="1.0" encoding="UTF-8"?>
<svg width="20px" height="20px" viewBox="0 0 20 20" version="1.1" xmlns="http://www.w3.org/2000/svg" xmlns:xlink="http://www.w3.org/1999/xlink">
    <!-- Generator: Sketch 50.2 (55047) - http://www.bohemiancoding.com/sketch -->
    <title>Shape</title>
    <desc>Created with Sketch.</desc>
    <defs></defs>
    <g id="Page-1" stroke="none" stroke-width="1" fill="none" fill-rule="evenodd" opacity="0.879999995">
        <g id="体重" transform="translate(-435.000000, -488.000000)" fill="#2283E2" fill-rule="nonzero">
            <g id="最近一次" transform="translate(200.000000, 142.000000)">
                <g id="Group-10">
                    <path d="M253.977624,366 L235.752362,366 C234.950502,366 235.000619,364.500738 235.000619,364.500738 C234.997061,361.130679 236.698992,357.986349 239.526113,356.139853 C240.00724,355.826549 240.633906,355.848553 241.091743,356.194826 C243.405589,357.935176 246.596026,357.935176 248.909872,356.194826 C249.367709,355.848553 249.994376,355.826549 250.475503,356.139853 C253.302102,357.986709 255.00359,361.130917 254.999994,364.500738 C254.999994,365.295347 254.658703,366 253.977624,366 Z M245.847772,355.929956 C243.694127,356.304184 241.54545,355.244471 240.536605,353.310524 C239.527761,351.376577 239.891104,349.013821 241.434728,347.470188 C242.978352,345.926555 245.346732,345.557574 247.288964,346.558128 C249.231196,347.558682 250.299949,349.698326 249.930739,351.846966 C249.57372,353.93262 247.938288,355.568062 245.847772,355.929956 Z" id="Shape"></path>
                </g>
            </g>
        </g>
    </g>
</svg>