<?xml version="1.0" encoding="UTF-8"?>
<svg width="32px" height="32px" viewBox="0 0 32 32" version="1.1" xmlns="http://www.w3.org/2000/svg" xmlns:xlink="http://www.w3.org/1999/xlink">
    <!-- Generator: Sketch 50.2 (55047) - http://www.bohemiancoding.com/sketch -->
    <title>Rectangle 4</title>
    <desc>Created with Sketch.</desc>
    <defs></defs>
    <g id="Page-1" stroke="none" stroke-width="1" fill="none" fill-rule="evenodd">
        <g id="体温" transform="translate(-38.000000, -441.000000)">
            <g transform="translate(38.000000, 441.000000)">
                <rect id="Rectangle-4" fill="#D8D8D8" opacity="0" x="0" y="0" width="32" height="32"></rect>
                <path d="M25.1427466,1.23332467 C22.992076,-0.123777759 20.0982921,0.457006297 18.6911038,2.52695207 L6.9128751,19.855421 C6.62919396,20.2728163 6.49488081,20.9553946 6.60030186,21.4439997 L7.32455961,24.7959707 L4.24096622,29.3338141 C3.79514995,29.9888239 3.98558678,30.8682492 4.66645105,31.2978854 C5.34742602,31.727486 6.26001735,31.5445119 6.70598125,30.8895022 L9.75190056,26.4073635 L13.3261059,25.6880627 C13.8326952,25.5854169 14.4286913,25.1941354 14.7123724,24.7767756 L26.4905273,7.44830665 C27.8977156,5.37832541 27.293122,2.59046257 25.1427466,1.23332467 Z M24.4003473,8.353229 L13.9308763,23.9969857 C13.7760964,24.2286034 13.3976253,24.4812016 13.1212584,24.5374804 L9.15592142,25.3479342 C9.0682817,25.3657756 8.97965797,25.3494076 8.90464598,25.3017772 C8.83025718,25.2535062 8.77895907,25.1803469 8.76075546,25.0950798 L7.93542667,21.2146584 C7.8775687,20.9437704 7.96324048,20.5035334 8.11779076,20.2719477 L18.5874586,4.62815896 C19.6359538,3.06122399 21.793459,2.62185183 23.3958031,3.64896476 C24.9986721,4.67598156 25.4493673,6.78667842 24.4003473,8.353229 Z M21.4571677,6.50627715 C20.2217821,5.71427335 18.558464,6.05300344 17.7501252,7.26122085 L17.2929358,7.94438259 L18.4981789,8.71639892 C18.7418777,8.87283935 18.8104938,9.19404838 18.6514172,9.43296921 C18.4911598,9.67118534 18.162642,9.73809856 17.9187464,9.5821706 L16.713897,8.80960975 L15.0604843,11.2803054 L16.2656945,12.0522897 C16.5097869,12.2091466 16.5782391,12.5299072 16.4186048,12.7684436 C16.2589707,13.0070121 15.9308793,13.0738292 15.687246,12.9179013 L14.4815766,12.144988 L12.8283934,14.6156197 L14.0332101,15.3881805 C14.1519436,15.4640945 14.2329251,15.5802077 14.2615261,15.7153474 C14.290455,15.8509035 14.2637564,15.988958 14.1861533,16.1043344 C14.0264862,16.3429029 13.6979029,16.4098161 13.4541385,16.2533756 L12.2490922,15.4808788 L10.5959091,17.9515105 L11.8008897,18.7235588 C11.9193936,18.7995048 12.0007359,18.9160344 12.0293041,19.0512061 C12.0581674,19.1863138 12.0315344,19.3248167 11.9541608,19.4401611 C11.7944283,19.6782491 11.4661073,19.7450983 11.2221133,19.5887539 L10.0169031,18.8166735 L9.67808629,19.3229269 C9.55879523,19.5015329 9.49270464,19.8408076 9.53754129,20.049587 L10.1738477,23.0413024 C10.1879514,23.1074468 10.2275074,23.1639819 10.2848077,23.2011061 C10.3425017,23.2376537 10.4109539,23.2503381 10.4785204,23.2365647 L13.5358416,22.611988 C13.7490042,22.5685857 14.0406228,22.3736438 14.1599138,22.1950698 L22.2318216,10.1338762 C23.0405868,8.92556273 22.6930781,7.29812081 21.4571677,6.50627715 Z" id="Shape" fill="#FFFFFF" fill-rule="nonzero" transform="translate(15.625000, 16.015152) scale(-1, 1) translate(-15.625000, -16.015152) "></path>
            </g>
        </g>
    </g>
</svg>