<?xml version="1.0" encoding="UTF-8"?>
<svg width="32px" height="32px" viewBox="0 0 32 32" version="1.1" xmlns="http://www.w3.org/2000/svg" xmlns:xlink="http://www.w3.org/1999/xlink">
    <!-- Generator: Sketch 50.2 (55047) - http://www.bohemiancoding.com/sketch -->
    <title>Rectangle 3</title>
    <desc>Created with Sketch.</desc>
    <defs></defs>
    <g id="Page-1" stroke="none" stroke-width="1" fill="none" fill-rule="evenodd">
        <g id="体温" transform="translate(-38.000000, -135.000000)">
            <g id="体重" transform="translate(38.000000, 135.000000)">
                <rect id="Rectangle-3" fill="#D8D8D8" opacity="0" x="0" y="0" width="32" height="32"></rect>
                <path d="M22.8944858,12.229915 C23.0994608,12.1756637 23.236375,12.0701557 23.1955209,11.8306048 C23.2359348,11.7829588 23.2762606,11.7353128 23.3166745,11.6876669 C23.4550854,11.6865219 23.5087065,11.6208216 23.4706699,11.4852816 C23.4859902,11.4405419 23.5012224,11.3957142 23.5165427,11.3509745 C23.7777802,11.1416317 23.7739941,10.9322889 23.5162786,10.7231222 C23.3376298,10.406598 23.0342175,10.2039485 22.7997465,9.9384169 C22.7881242,9.7228211 22.6475121,9.66566355 22.4621717,9.66346179 C22.4282734,9.63730495 22.394287,9.61123618 22.3603006,9.58507933 C22.3583635,9.40224564 22.2030474,9.35477581 22.0853277,9.27551264 C21.5757077,8.93203893 21.029724,8.65743611 20.4514268,8.45417013 C20.3054438,8.40291328 20.1740766,8.2070452 19.9831012,8.35958275 C19.9285117,8.34839784 19.8739221,8.33721293 19.8193325,8.32602801 C19.7145558,8.13544414 19.5767612,8.04675747 19.3671196,8.17903888 C19.3119138,8.17058414 19.2567079,8.16212941 19.20159,8.15367467 C19.070487,7.92768658 18.8955363,7.86119359 18.6625621,8.00518834 C18.5781244,7.99576483 18.4936867,7.98642939 18.4092489,7.97700588 C18.1475712,7.71226692 17.8450394,7.69632621 17.5178542,7.83036903 C17.2865529,7.82068131 17.0552517,7.81099359 16.8240385,7.80130587 C16.4652442,7.58817603 16.1065379,7.58553393 15.7477436,7.80130587 C15.5163543,7.80958447 15.284965,7.81786306 15.0535757,7.82614166 C14.6981272,7.68989709 14.3687408,7.71966481 14.0757182,7.98008834 C13.9910163,7.98986413 13.9063144,7.99972799 13.8217006,8.00959185 C13.5873177,7.8570543 13.4158008,7.93534869 13.283201,8.15631677 C13.227819,8.16494765 13.1723489,8.17357853 13.116967,8.18220941 C13.0550694,8.09017607 12.9679022,8.1027701 12.8848733,8.13544414 C12.4146106,8.32056766 11.9340464,8.48517083 11.481041,8.70605085 C11.2507964,8.81834033 10.9332084,8.83648279 10.8294002,9.14719439 L10.0274619,9.66724881 C9.71771014,9.66742495 9.58352547,9.93084287 9.40073848,10.1055741 C8.70859566,10.7671573 8.6977658,11.1418079 9.28662869,11.8755206 C9.79078971,12.5036371 10.2814794,13.1427624 10.7697038,13.783473 C11.0084011,14.0965625 11.2912102,14.2557934 11.704418,14.2489239 C12.9219413,14.2285797 14.1479173,14.1560098 15.3555792,14.2671544 C16.4584645,14.3686113 17.0806975,14.03826 17.4427495,12.9638038 C17.7346276,12.0977216 18.2237325,11.2960188 18.6490908,10.4780229 C18.8333746,10.1235404 19.1675156,9.9599941 19.5683086,10.0174159 C19.9197069,10.0677039 20.1475743,10.2647169 20.3157454,10.606165 C20.5164941,11.0135777 20.311343,11.3223517 20.1720515,11.6394925 C19.844162,12.3858873 19.4762988,13.1147561 19.1253407,13.8510228 C19.0454815,14.0185323 18.900643,14.2211818 19.2796883,14.1619105 C19.895934,14.162439 20.5121797,14.1630555 21.1285135,14.1636719 C21.4342151,14.3205249 21.5903236,14.0619509 21.7353381,13.9004302 C22.0170027,13.5866361 22.2537629,13.2323298 22.5069,12.8930834 C22.6605432,12.6870873 22.8884106,12.5237171 22.8936054,12.2307957 L22.8944858,12.229915 Z M22.9729363,27.5414445 C18.483209,27.5425894 13.9930414,27.5810761 9.50410646,27.5258561 C7.7787241,27.5046312 6.06487599,26.2672451 5.36419254,24.4636558 C5.11211203,23.8148428 5.00645482,23.1519386 5.0088321,22.452221 C5.02283168,18.3282466 5.05540933,14.2036558 5.00046757,10.080386 C4.96850627,7.68144235 6.58013102,5.82184046 8.28790384,5.27624569 C8.73245658,5.13418848 9.17313523,5.0009383 9.65325923,5.001819 C14.0696429,5.00992146 18.4862026,4.98534988 22.9023221,5.01555795 C25.00358,5.03000146 26.8803163,6.63877947 27.398653,8.63524242 C27.5228002,9.11355158 27.5558181,9.58331793 27.555554,10.065326 C27.5529126,14.39468 27.5493026,18.7241221 27.5459568,23.0534761 C27.359824,23.1255175 27.3361392,23.3111694 27.3348185,23.4551642 C27.3320009,23.7701032 27.2425445,24.0564193 27.1283466,24.3386843 C26.4621779,25.9849802 25.2892947,27.0152252 23.5124925,27.3183627 C23.3233661,27.3506845 23.0937377,27.3264652 22.9729363,27.5414445 Z" id="Fill-1" fill="#FFFFFF"></path>
            </g>
        </g>
    </g>
</svg>