<?xml version="1.0" encoding="UTF-8"?>
<svg width="32px" height="32px" viewBox="0 0 32 32" version="1.1" xmlns="http://www.w3.org/2000/svg" xmlns:xlink="http://www.w3.org/1999/xlink">
    <!-- Generator: Sketch 50.2 (55047) - http://www.bohemiancoding.com/sketch -->
    <title>Rectangle 6</title>
    <desc>Created with Sketch.</desc>
    <defs></defs>
    <g id="Page-1" stroke="none" stroke-width="1" fill="none" fill-rule="evenodd">
        <g id="体温" transform="translate(-38.000000, -519.000000)">
            <g id="心电" transform="translate(38.000000, 519.000000)">
                <rect id="Rectangle-6" fill="#D8D8D8" opacity="0" x="0" y="0" width="32" height="32"></rect>
                <path d="M5.38793056,7.02214981 C5.33697894,7.04199479 5.29642994,7.07149696 5.28783186,7.13050128 L5.28395741,7.1361258 C4.48789148,8.06804398 4.10235758,9.16949349 4.0201981,10.3711761 C3.90285016,12.0881914 4.30430644,13.7105451 5.0298893,15.2578169 C5.14479581,15.5029077 5.19712737,15.7912436 5.44121745,15.9635872 C5.49259367,15.9972812 5.54545597,15.9917628 5.59900824,15.9696362 C5.81189046,15.99882 6.02477269,15.9982894 6.23770798,15.9703791 C6.73246941,15.9977057 7.22723083,15.9986078 7.72199226,15.9696362 C7.93471526,15.99882 8.14749133,15.9982894 8.3602674,15.9703791 C8.87302112,15.9964853 9.38577483,16.0004119 9.89847547,15.9687342 C10.1461746,16.0278446 10.1209111,15.8189948 10.1530213,15.6920718 C10.3842142,14.7773986 10.6049515,13.8600723 10.8328538,12.9445501 C11.105498,11.8494149 11.372251,10.7526348 11.6616137,9.66185065 C11.7748749,9.23491825 11.7923895,8.76744691 12.1134378,8.41352706 C12.1888037,8.38561674 12.2642227,8.35765336 12.3395886,8.32974303 C12.4286478,8.32831038 12.5176539,8.32693078 12.60666,8.32549812 C12.6896687,8.35797172 12.7726774,8.39044533 12.8557391,8.42291893 C13.1018991,8.60237275 13.0931418,8.91310058 13.2297028,9.14895871 C13.2283228,9.40858836 13.3583556,9.63760157 13.4017175,9.88683118 C13.4610019,10.2134244 13.5065399,10.5436258 13.6542996,10.846925 C13.6529196,11.1065546 13.7829524,11.3355679 13.8263144,11.5847975 C13.8855987,11.9113376 13.9310836,12.241539 14.0788964,12.5448382 C14.0774634,12.8044679 14.2074961,13.0335341 14.2509112,13.2827638 C14.3101955,13.609357 14.3557335,13.9395583 14.5034932,14.2428576 C14.5021132,14.5024872 14.632146,14.7315004 14.675508,14.98073 C14.7347923,15.3073763 14.7802772,15.6375777 14.9281431,15.94093 C14.9464007,16.1959433 15.0219259,16.4376382 15.1001048,16.6786963 C15.0757435,16.7294761 15.0883222,16.7669375 15.1404415,16.7900192 C15.1296673,16.8826645 15.1390615,16.9712771 15.1924015,17.0511877 C15.1688894,17.1206451 15.184918,17.175776 15.2509428,17.2128128 C15.2302968,17.2902826 15.248236,17.3622869 15.2821506,17.4320097 C15.2712173,17.5040141 15.2737649,17.5853042 15.3633017,17.5844552 C15.4491764,17.5836062 15.4589421,17.5047039 15.4463104,17.4308423 C15.4833034,17.3455726 15.5068685,17.2579681 15.4917953,17.1637841 C15.5772985,17.1093961 15.5765024,17.0288488 15.5587755,16.9431015 C15.5931678,16.8790563 15.6149284,16.8126234 15.5966176,16.7388149 C15.6522398,16.7171659 15.6649777,16.6789086 15.640245,16.6261655 C15.6997947,16.5470509 15.7038814,16.4568464 15.692895,16.3636175 C15.743422,16.3402704 15.7570091,16.3040294 15.7312679,16.2539925 C15.8093937,16.1609227 15.8030778,16.0497059 15.7988319,15.9389667 C15.885715,15.8673337 15.8970199,15.7728844 15.8800891,15.6698921 C15.9105008,15.6216062 15.9243002,15.5707203 15.9049811,15.5144751 C15.9918642,15.4428422 16.0031691,15.3483928 15.9862383,15.2454005 C16.01665,15.1971146 16.0304494,15.1462287 16.0111303,15.0899836 C16.0980134,15.0183506 16.1093183,14.9239012 16.0923875,14.820909 C16.1227992,14.77257 16.1366517,14.721631 16.1172795,14.6653859 C16.2761848,14.3087068 16.3379637,13.9265583 16.4109943,13.5473281 C16.4414591,13.4992014 16.4554178,13.4483685 16.4360986,13.3921765 C16.5222387,13.3202251 16.5340743,13.2259349 16.5169843,13.1229427 C16.547396,13.0746568 16.5611954,13.0237708 16.5418763,12.9675257 C16.6288125,12.8959458 16.639852,12.8013372 16.623505,12.6984511 C16.6360306,12.648255 16.6485032,12.5980058 16.6610288,12.5478097 C16.7161202,12.5336423 16.7338471,12.4962339 16.7264167,12.4431194 L16.7299196,12.4317112 C16.8254539,12.3485109 16.9209882,12.2652575 17.0165755,12.182004 C17.2253179,12.160408 17.433848,12.141359 17.6299587,12.2443512 C17.7250153,12.3606089 17.8200719,12.4768134 17.9151285,12.5930711 C17.9718122,12.9932605 18.0640558,13.3844825 18.2120809,13.7614841 C18.2146815,13.9483665 18.2412188,14.129253 18.3439713,14.2911965 C18.3937552,14.6926064 18.4895018,15.0824488 18.6366777,15.4594504 C18.6392783,15.6463328 18.6658156,15.8272193 18.7685681,15.9891628 C18.8251456,16.4258585 18.9337893,16.8495011 19.0869095,17.2620008 C19.0861665,17.3042908 19.0791606,17.3475889 19.0859542,17.3886054 C19.0982675,17.4629445 19.1009212,17.5616919 19.202506,17.5606306 C19.2930513,17.5596755 19.2892299,17.4643772 19.2931043,17.4014993 C19.3005348,17.2805723 19.3906024,17.1789596 19.3685234,17.0530448 C19.4140614,16.9713302 19.4281261,16.8837258 19.4171397,16.791505 C19.5009445,16.7374884 19.5025898,16.6573126 19.4871451,16.5717244 C19.516973,16.5243936 19.5305601,16.4738261 19.5175568,16.4180054 C19.5689861,16.401238 19.5885706,16.3664828 19.5765227,16.3138458 L19.8286271,16.0546937 C19.8808525,16.0655713 19.9149264,16.0448243 19.9326002,15.9952649 C20.1083302,15.986722 20.2841133,15.9781791 20.4598964,15.9696362 C20.6727786,15.99882 20.8856608,15.9982894 21.0985961,15.9703791 C21.5933575,15.9977057 22.088119,15.9986078 22.5828804,15.9696362 C22.7957626,15.99882 23.0086448,15.9982894 23.2215801,15.9703791 C23.7163415,15.9977057 24.211103,15.9986078 24.7058644,15.9696362 C24.9185874,15.99882 25.1313635,15.9982894 25.3441395,15.9703791 C25.643958,15.9757913 25.9437233,15.9845995 26.2435417,15.9859261 C26.6524284,15.9876771 26.7062992,15.940983 26.8222141,15.5105486 C26.8763502,15.4734056 26.9213044,15.4310095 26.9099995,15.3565643 C26.91536,15.3368254 26.9206675,15.3170335 26.926028,15.2972946 C26.9760774,15.2574455 27.0212438,15.2150494 27.0082936,15.1418776 C27.0533009,15.1002244 27.0677372,15.0477466 27.0628013,14.9883178 C27.1185296,14.9699055 27.1403432,14.9347788 27.1175212,14.8775786 C27.1685789,14.7306514 27.2195836,14.5837243 27.2706414,14.4367441 C27.3567815,14.4198175 27.364955,14.3618213 27.3478119,14.2904537 C27.3764191,14.2621719 27.3875647,14.2293269 27.3742961,14.1900084 C27.428326,14.1709062 27.4454691,14.1338163 27.4279014,14.0799059 C27.4797022,14.0190974 27.4913256,13.947942 27.4821967,13.8713213 C27.6475241,13.5736997 27.6930621,13.2417473 27.7565394,12.9149418 C27.7985744,12.8139128 27.8191143,12.7096471 27.8045719,12.5999691 C27.8960194,12.5057319 27.8875805,12.3904294 27.8734096,12.2738534 C27.9088635,12.1373794 27.9367807,12.0001094 27.9130563,11.8579578 C27.9892184,11.7912596 27.9709607,11.6974469 27.9770643,11.6139813 C28.0097052,11.1693263 28.003867,10.7240877 27.9822126,10.2791675 C27.9781789,10.1955427 27.9919252,10.10173 27.9126848,10.0375787 C27.9286072,9.89224345 27.9065812,9.7511 27.8657138,9.61202595 C27.8819546,9.52967458 27.8696944,9.45692734 27.7960799,9.40476794 C27.8135415,9.36651064 27.8043065,9.33329417 27.7769731,9.3035267 C27.7809537,9.08544415 27.7099929,8.8911862 27.5891421,8.71279362 C27.6017738,8.65182601 27.5850553,8.59855232 27.5466824,8.55095621 C27.5596326,8.49725802 27.5436041,8.46016807 27.4869735,8.44610679 C27.4970046,8.40142905 27.4814537,8.36635543 27.4468491,8.33833899 C27.4228063,8.19783228 27.350784,8.07807259 27.2827424,7.9564027 C26.5778586,6.69619335 25.5501751,5.82004274 24.1815935,5.34827342 C23.3005551,5.0445497 22.4007283,4.92914106 21.4743112,5.07246002 C21.4373713,5.07458248 21.4004844,5.07670494 21.3635445,5.0788274 C21.3113722,5.07856209 21.2577138,5.07012532 21.2072398,5.07935801 C19.9781913,5.30386099 18.9150009,5.85166736 17.9979779,6.70006683 C17.2555704,7.38700032 16.7311403,8.23009364 16.2249678,9.08952989 C16.0101749,9.45427427 15.9974901,9.4532661 15.7845548,9.10067279 C15.3428149,8.36916769 14.9091954,7.63416053 14.314123,7.00777016 C12.2348194,4.81903856 9.15150355,4.36907749 6.64155262,5.90849617 C6.22459856,6.16419928 5.81969243,6.4472821 5.53606177,6.86360221 C5.5213601,6.87936146 5.50671151,6.89512071 5.49206292,6.91087996 C5.43468928,6.92658615 5.39546715,6.959272 5.38819593,7.02183144 L5.38793056,7.02214981 Z M23.5147111,20.2111029 L23.501071,20.1976253 L23.5168872,20.2084499 C23.5696433,20.1900375 23.6066363,20.1568741 23.6187374,20.1002045 C23.6186843,20.1002576 23.6186312,20.1003106 23.6185781,20.1003106 C23.6736165,20.0703309 23.7292917,20.0409349 23.7341746,19.9673917 L23.7580582,19.9579998 L23.7577928,19.9323712 C23.8254098,19.9214936 23.861819,19.8826526 23.864632,19.8135135 L23.8622436,19.8163258 C24.0322416,19.6989008 24.1615313,19.5457124 24.258764,19.3644545 L24.2620546,19.3596259 C24.3173583,19.3296462 24.3719721,19.2991359 24.3735112,19.2247437 L24.3968641,19.215458 L24.3957495,19.1903599 C24.4942029,19.1709925 24.5297098,19.0796206 24.5811922,19.0144081 C24.9289369,18.573892 25.2802908,18.1354453 25.5847798,17.6630392 C25.657492,17.5501775 25.8363003,17.4316913 25.7602444,17.3142663 C25.6839231,17.1964699 25.4879717,17.2641233 25.3427065,17.2808907 C24.8479451,17.253564 24.3531837,17.252662 23.8584222,17.2816335 C23.6456993,17.2524497 23.4329232,17.2529273 23.2201471,17.2808907 C22.7252265,17.253564 22.2303058,17.252662 21.7354382,17.2816335 C21.4276055,17.2752662 21.1196667,17.2719233 20.8119933,17.2611518 C20.6909832,17.2569069 20.6309027,17.3195725 20.6061169,17.4233076 C20.4922719,17.9001708 20.3816644,18.3777769 20.2698362,18.8551177 C20.2360808,18.9204363 20.2192561,18.9885141 20.2367177,19.0620573 C20.1569465,19.1160739 20.146597,19.1931721 20.1642178,19.2796092 C20.1305154,19.3449279 20.1129477,19.4128996 20.1305685,19.4865489 C20.0507973,19.5405654 20.0404478,19.6176637 20.0580686,19.7041008 C20.0243662,19.7694195 20.0067985,19.8373912 20.0244193,19.9110405 C19.9446481,19.965057 19.9342986,20.0421553 19.9519194,20.1285924 C19.918217,20.193911 19.9006493,20.2618827 19.9182701,20.335532 C19.8365883,20.3919363 19.8256549,20.4716346 19.8441779,20.560937 C19.8396135,20.5895372 19.834996,20.6180842 19.8304316,20.6466843 C19.7191872,20.8153667 19.5907998,20.9679714 19.421651,21.0824249 C19.3461789,21.0900127 19.2706538,21.0976005 19.1951817,21.1051352 C19.1578172,21.0797188 19.1194443,21.0787106 19.080116,21.1004658 L18.9275796,21.0671963 C18.9145232,21.0140287 18.8799717,20.9921144 18.8265255,20.9976328 C18.7565201,20.9195263 18.6865147,20.8414199 18.6165624,20.7632603 C18.511687,20.4659571 18.5020274,20.1407435 18.3506056,19.857077 C18.3677487,19.783746 18.3501279,19.7161458 18.3169032,19.6510924 C18.3336748,19.5647084 18.3240152,19.4870795 18.2445095,19.4326385 C18.2615995,19.3593075 18.2439787,19.2917073 18.210754,19.2266009 C18.134645,18.8658361 18.0816766,18.4989162 17.9255842,18.1595352 C17.9426211,18.0860981 17.9249473,18.0183917 17.8919349,17.9531261 C17.9087595,17.8667421 17.8994184,17.7890601 17.8193819,17.7348314 C17.8364189,17.6615004 17.8187981,17.5938471 17.7857857,17.5286346 C17.6465179,16.9390688 17.5075156,16.349397 17.3676109,15.7599904 C17.3549261,15.7064514 17.3301933,15.6528063 17.2636908,15.6664431 C17.2041411,15.6786472 17.1935793,15.7375454 17.1810537,15.7892804 C17.1229901,16.0289058 17.0639711,16.268266 17.006226,16.5079446 C16.8560779,17.1310982 16.7064075,17.754411 16.5565779,18.3776177 C16.5228756,18.443467 16.5070063,18.5120224 16.5246801,18.5857247 C16.4480935,18.6401127 16.4331795,18.7156191 16.4506941,18.8021623 C16.4167794,18.8679055 16.4008571,18.9364609 16.4185309,19.0102163 C16.3419443,19.0646043 16.3270303,19.1401107 16.3445449,19.2266539 C16.3106302,19.292397 16.2947079,19.3609524 16.3123817,19.4347078 C16.2357951,19.4890958 16.2208811,19.5646023 16.2383957,19.6511455 C16.204481,19.7167825 16.1885587,19.7851787 16.2063387,19.8587749 C16.071423,20.0720289 16.0627719,20.3231687 16.0007807,20.5577534 C15.8998859,20.9397427 15.5668959,21.1597885 15.2039718,21.0746249 C14.990028,21.0244288 14.8788368,20.8515546 14.7448765,20.7046805 C14.7484855,20.6292802 14.7397813,20.5565329 14.6977993,20.4911612 C14.6461046,20.2608215 14.633579,20.0196572 14.509756,19.8091625 C14.5315696,19.749203 14.52398,19.6934355 14.485554,19.6421781 C14.5028563,19.5594022 14.4812018,19.4900509 14.4145401,19.4361405 C14.4312586,19.3587769 14.4210683,19.2857113 14.3793517,19.2176865 C14.3967071,19.1349107 14.3750526,19.0655594 14.3083909,19.0116489 C14.3251094,18.9342853 14.3149191,18.8612197 14.2732025,18.793195 C14.2215078,18.5628552 14.2089822,18.3216909 14.0851592,18.1111962 C14.1068667,18.0512368 14.0994893,17.9954692 14.0609572,17.9442118 C14.0782595,17.861436 14.056605,17.7920847 13.9899433,17.7381742 C14.0065026,17.6608637 13.9964715,17.587745 13.9552326,17.5196141 C13.9725349,17.4367852 13.9515173,17.3672217 13.8841657,17.3135765 C13.9008842,17.2361599 13.89011,17.1632004 13.8490303,17.0951226 C13.7967518,16.864942 13.7867738,16.6230349 13.6606685,16.413283 C13.6828006,16.3532705 13.6749456,16.297556 13.6369973,16.2460863 C13.653875,16.1633636 13.6331228,16.0936408 13.5657181,16.0401018 C13.582755,15.9626321 13.5714501,15.8897787 13.5306358,15.8216478 C13.5479381,15.7388189 13.5269205,15.6692554 13.4595689,15.6156102 C13.4766589,15.5381936 13.4653009,15.4653933 13.4244866,15.3972624 C13.3722081,15.1669757 13.3620708,14.9250686 13.2360186,14.7151044 C13.2539579,14.6386429 13.2545417,14.565365 13.1969027,14.5028056 C13.2206801,14.4346216 13.1992379,14.3820377 13.1413866,14.3420294 C13.157999,14.2646658 13.1474371,14.1916533 13.1063043,14.1235754 C13.1232351,14.0409057 13.1028545,13.9710768 13.0352374,13.9175378 C13.0518498,13.8401742 13.0412879,13.7671617 13.0001551,13.6990839 C12.9483543,13.4869973 12.9509019,13.2593106 12.81933,13.0700935 C12.8354116,12.9760686 12.8338724,12.8851213 12.7723059,12.8048393 C12.7960833,12.7366553 12.7746411,12.6840715 12.7167898,12.6440631 C12.7334022,12.5666995 12.7228403,12.493687 12.6817075,12.4256091 C12.6986383,12.3429394 12.6782577,12.2731105 12.6106406,12.2195715 C12.629376,12.1633795 12.617275,12.1119099 12.5869163,12.0631995 C12.6054393,11.9628072 12.5932852,11.8490965 12.4854376,11.8371577 C12.3863474,11.826227 12.3987668,11.9343663 12.409541,12.0101911 C12.379713,12.0584239 12.3657544,12.1092037 12.3848613,12.1652897 C12.3347058,12.1886898 12.3211187,12.2249308 12.3465414,12.2748085 C12.2685748,12.3678783 12.2748907,12.4790951 12.2787121,12.5897813 C12.2285566,12.6131814 12.2149695,12.6494223 12.2403922,12.6993001 C12.1624256,12.7923699 12.1687415,12.9035867 12.1725629,13.0142728 C12.1224074,13.0376729 12.1088203,13.0739139 12.134243,13.1237917 C12.0562764,13.2167023 12.0625923,13.3277599 12.0665198,13.4382869 C11.912285,13.7581943 11.8678085,14.1069141 11.7999792,14.4495319 C11.7388372,14.5284343 11.7371919,14.6190632 11.7479661,14.7121861 C11.6713794,14.7666802 11.6563593,14.8421335 11.6741393,14.9287829 C11.6396939,14.9944199 11.6242492,15.0629753 11.6418169,15.1366776 C11.5652833,15.1911717 11.550157,15.2666251 11.5679901,15.3532745 C11.5335447,15.4189115 11.5181,15.4874668 11.5356677,15.5611692 C11.4591341,15.6156633 11.4440078,15.6911167 11.4618409,15.777766 C11.4273955,15.843403 11.4119508,15.9119584 11.4295185,15.9856608 C11.3529849,16.0401549 11.3378586,16.1156083 11.3556917,16.2022576 C11.3212463,16.2680538 11.3058016,16.3367684 11.323157,16.4106299 C11.2593082,16.4436872 11.2550623,16.5091119 11.2412098,16.5674265 C11.1152638,17.0967675 10.9892116,17.2156782 10.4818715,17.2806784 C9.98705698,17.2537763 9.49229556,17.2525559 8.99753413,17.2816335 C8.78470498,17.2524497 8.57176969,17.2529804 8.35883439,17.2808907 C7.72528288,17.2761682 7.09173138,17.2696947 6.4581268,17.2688457 C6.37798415,17.2687396 6.25840708,17.2199761 6.22810148,17.3308215 C6.20458943,17.4169402 6.28781041,17.4874058 6.36046953,17.5406265 C6.35452518,17.5964471 6.37639191,17.6316268 6.43434938,17.6400105 C6.5074331,17.8232317 6.61183084,17.9845916 6.7640488,18.1126288 C6.77864431,18.213764 6.84090082,18.28025 6.92348489,18.3319318 C6.95283515,18.418422 6.98759901,18.5007203 7.08170028,18.5374388 C7.16730961,18.71806 7.29198185,18.8684361 7.4402192,19.0006122 C7.43554864,19.047094 7.45975066,19.066992 7.50327183,19.0691675 C7.50470484,19.139474 7.54037098,19.1805435 7.60920873,19.1932783 C7.64588328,19.3033808 7.71254498,19.3884913 7.81646505,19.4426671 C7.83366122,19.5448103 7.89915527,19.607529 7.98736526,19.6516761 L7.98667529,19.6510394 C8.1183003,19.8434402 8.26048715,20.0261838 8.45320103,20.1629231 C8.52564786,20.3065605 8.63163783,20.4195283 8.76703114,20.505594 C8.96367254,20.787987 9.20686035,21.025437 9.47578935,21.2380011 C9.52122121,21.3367485 9.59361497,21.4081161 9.69312984,21.4519449 C9.79742143,21.6171251 9.93281474,21.7497257 10.1041926,21.8447057 C10.0990444,21.8784528 10.1128438,21.8928855 10.1469708,21.8866242 C10.2635226,22.0479841 10.4026311,22.1849357 10.5772465,22.2834177 L10.5794226,22.2984872 L10.5940181,22.3028913 C10.6216169,22.3766997 10.6717193,22.4260469 10.7492082,22.4456266 C10.8721821,22.5963211 11.0047094,22.7365094 11.1774141,22.8321261 C11.3006003,22.9927431 11.452659,23.1191355 11.6306181,23.2149645 C11.6953161,23.3344058 11.7971662,23.4122469 11.9167433,23.47019 C11.9617506,23.5564149 12.0250155,23.6199294 12.1252203,23.6373336 C12.1866276,23.7415463 12.2733515,23.8154078 12.3877804,23.8559998 C12.5171763,24.0274944 12.687015,24.149801 12.8718738,24.2538015 L12.8798881,24.2759812 L12.9034532,24.2740709 C12.9173587,24.3422549 12.9584916,24.3773285 13.0287093,24.3770632 C13.0317345,24.4203614 13.0517967,24.4449819 13.0983962,24.4403655 C13.1271626,24.498627 13.1673401,24.5418721 13.2371332,24.5465945 C13.3016719,24.6406725 13.3895635,24.7053013 13.4934305,24.7496607 C13.6486737,24.9238614 13.8373008,25.0546579 14.0385597,25.1690584 C14.2856219,25.388945 14.5358156,25.6045337 14.8334049,25.7561302 C14.9322298,25.893241 15.0730898,25.9749556 15.2198411,26.0488171 L15.2313582,26.0551315 C15.2733933,26.127242 15.325088,26.185132 15.4184462,26.1812585 C15.5175896,26.3130631 15.6533013,26.3951492 15.8002118,26.4620597 C15.9352336,26.6465543 16.0702023,26.6454931 16.2050118,26.4617944 C16.3531961,26.3964757 16.4865725,26.3110999 16.5865651,26.1803565 C16.6262649,26.1657646 16.6719621,26.1593441 16.7048684,26.1353604 C18.6006931,24.7522607 20.4378704,23.2972097 22.1286149,21.6661009 C22.5129811,21.2953075 22.9200633,20.9431917 23.235008,20.5050633 C23.268445,20.508194 23.2835182,20.493496 23.2790599,20.4598019 C23.3510821,20.4406467 23.3925334,20.392467 23.4103665,20.3218422 L23.4152493,20.3160054 C23.4690139,20.3005645 23.5049454,20.268197 23.5147111,20.2111029 Z" id="Fill-1" fill="#FFFFFF"></path>
            </g>
        </g>
    </g>
</svg>