<?xml version="1.0" encoding="UTF-8"?>
<svg width="213px" height="480px" viewBox="0 0 213 480" version="1.1" xmlns="http://www.w3.org/2000/svg" xmlns:xlink="http://www.w3.org/1999/xlink">
    <!-- Generator: Sketch 51.3 (57544) - http://www.bohemiancoding.com/sketch -->
    <title>human</title>
    <desc>Created with Sketch.</desc>
    <defs></defs>
    <g id="Page-3" stroke="none" stroke-width="1" fill="none" fill-rule="evenodd" stroke-dasharray="8" stroke-linecap="round" stroke-linejoin="round">
        <g id="创建档案-家人" transform="translate(-176.000000, -101.000000)" fill="#2283E2" stroke="#C9EBFF" stroke-width="2">
            <g id="human" transform="translate(177.000000, 102.000000)">
                <path d="M105.5,477.708167 C163.543274,477.708167 210.596644,467.155014 210.596644,454.13704 C210.596644,441.119067 163.543274,430.565914 105.5,430.565914 C47.4567263,430.565914 0.40335599,441.119067 0.40335599,454.13704 C0.40335599,467.155014 47.4567263,477.708167 105.5,477.708167 Z" id="Oval-2" stroke-opacity="0.32" fill-opacity="0.0416666667"></path>
                <path d="M184.273381,242.980081 C183.574486,237.583836 183.764817,232.176913 184.207908,226.758296 C184.524619,222.885894 184.475894,219.021628 183.97342,215.114142 C183.317666,210.011785 182.808086,204.817905 183.007553,199.693176 C183.446583,188.402907 182.26247,177.387714 178.700487,166.672001 C177.670162,163.570927 177.098661,160.481039 177.231639,157.220818 C177.718379,145.259896 175.903889,133.660994 171.783602,122.411911 C171.183171,120.771631 170.551272,119.086608 170.63451,117.247522 C170.977106,109.681694 170.170102,102.220101 168.053113,94.9629061 C165.286967,85.4827414 160.22213,77.6413308 150.13509,75.0171887 C140.387094,72.4810095 132.711421,66.2656416 124.122668,61.676825 C122.052881,60.5709329 120.738327,58.6937128 119.926248,56.4478621 C119.309068,54.7399579 118.977638,53.295434 120.830194,52.0242937 C121.766623,51.3816051 122.358933,50.2157152 122.615753,49.0299955 C123.300437,45.8679067 124.61093,42.9310641 125.813315,39.9550703 C127.495335,35.7938653 128.747967,31.6326602 126.024456,27.4002713 C126.020396,26.3960705 126.016843,25.3913611 126.012782,24.3866518 C126.550785,21.3694731 126.586821,18.3151771 126.337614,15.2883377 C126.019888,11.429664 124.500792,8.11758075 121.257043,5.74817515 C114.408677,0.744966749 106.9142,-1.53291675 98.6238853,1.11410591 C92.0298014,3.21911432 85.957986,6.30188388 84.6459704,14.1631242 C84.3023593,16.2213547 84.5165452,18.379751 84.5398925,20.4913693 C84.5678077,23.0229724 85.594073,26.0630317 84.5444605,27.9799113 C82.230542,32.2077241 83.617675,35.8309826 84.8921319,39.6479628 C85.8524157,42.5253161 87.3227868,45.2242013 87.9815861,48.2113811 C88.3160613,49.7275973 88.8190429,51.0333126 90.1528831,52.0629363 C91.4577931,53.0701879 91.7349151,54.5375923 91.0893121,56.1875325 C90.2107438,58.4338917 89.1596086,60.4280567 86.9588737,61.7424158 C83.1202764,64.035553 79.4014608,66.5290219 75.6054976,68.8943599 C71.503482,71.4498604 67.253262,73.7628274 62.4564111,74.6516087 C57.9113047,75.4941205 54.3264822,77.7704787 51.3009792,81.1532374 C44.9043321,88.3056898 42.5376285,96.9484273 41.6768244,106.263344 C41.1677522,111.776025 41.6884981,117.35684 39.8181779,122.795795 C36.0267827,133.819124 34.2666008,145.214643 34.5914326,156.911168 C34.6467555,158.914994 35.2304375,160.932548 34.4574395,162.95061 C30.2884274,173.837673 28.9408833,185.141161 28.9616928,196.762943 C28.984025,209.260795 26.7112181,221.706785 27.975524,234.260567 C28.2277761,236.767764 28.103934,239.358348 27.8060025,241.869104 C26.275233,254.771687 33.5966354,262.988847 42.7005519,270.22011 C43.8445686,271.128721 45.9260294,272.65053 46.9385908,271.300579 C48.087683,269.768093 46.296033,267.971209 44.9758966,266.882096 C39.552222,262.40819 38.66198,255.928933 37.1581107,249.708989 C36.9383417,248.800887 37.2149562,247.961934 38.2051854,247.686351 C39.3507248,247.36704 39.6110977,248.329039 39.9374521,249.098842 C40.8611923,251.278594 41.7473738,253.482242 43.162422,255.400139 C43.7796023,256.237566 44.2912122,257.608872 45.6453545,257.066858 C46.9756419,256.534505 46.8533224,255.108794 46.720852,253.950531 C46.480781,251.853149 46.0661131,249.776106 45.7524474,247.686351 C44.8012995,241.349971 44.8347978,234.864612 42.4980396,228.735174 C41.6088128,226.403394 42.1914797,223.896197 43.0182779,221.519673 C44.5713796,217.056953 46.1696532,212.605928 47.5496804,208.088295 C51.1065878,196.444141 54.5548795,184.758802 55.5852051,172.548228 C55.9547012,168.169912 55.5628729,163.696007 56.2506026,159.383282 C57.3590908,152.437771 60.4855961,146.060714 62.7969768,139.456377 C62.8502695,139.302824 63.1735786,139.24486 63.5481502,139.050121 C64.6642517,147.566761 65.7453322,155.937475 66.2335949,164.402761 C66.711199,172.684494 67.2928508,180.966228 67.0010098,189.24847 C66.6431874,199.403356 63.9572351,209.29537 63.2461582,219.441612 C62.4386468,230.970347 59.7354379,242.306377 60.9479738,254.052222 C62.0686432,264.901659 62.7421615,275.822788 64.9063528,286.504943 C67.9673842,301.616768 71.2760998,316.644698 70.2503421,332.219726 C70.1442643,333.833057 69.8828763,335.329444 69.3606078,336.88837 C68.400324,339.754538 67.36137,342.612061 67.0040551,345.67856 C65.7788305,356.194958 66.5604568,366.577633 68.5683229,376.936918 C70.1133038,384.909002 72.1140641,392.756006 74.6787121,400.442845 C76.9966909,407.390899 79.6425468,414.228617 82.1072075,421.127858 C83.7369491,425.69176 83.9567181,430.418877 83.2517317,435.152604 C83.0573403,436.458319 82.8893413,437.748272 83.3725285,438.854164 C85.0641912,442.730634 82.8923866,445.079701 79.885663,446.91116 C77.0956631,448.610421 74.2214099,450.222227 71.8303439,452.531126 C70.7233783,453.599901 69.8412572,454.836975 70.2533874,456.308955 C70.6711007,457.800257 72.2262326,458.250241 73.6093051,458.643786 C74.1726852,458.803949 74.7746389,458.86649 75.3623813,458.892929 C81.2768564,459.163428 87.1923465,459.107498 93.1103744,459.009874 C97.3935852,458.939707 100.13283,456.511829 100.415028,452.306897 C100.516538,450.793731 100.426194,449.266329 100.388128,447.746045 C100.222159,441.158996 98.983738,434.694993 98.1681058,428.180145 C97.1139254,419.758586 97.3996758,411.269402 97.5742728,402.827505 C97.7311056,395.261169 97.2489336,387.700426 98.6842837,380.096465 C101.047942,367.576241 99.3567869,355.110422 96.6616987,342.732057 C95.5095612,337.441062 95.2928375,332.004649 97.755468,326.814329 C99.2197485,323.728509 99.767902,320.373207 100.014571,316.972143 C100.887556,304.924784 101.618428,292.864204 102.699001,280.835657 C103.698366,269.715722 104.423654,258.579007 105.261111,247.44941 C105.37937,245.876756 105.567163,244.309694 105.754449,242.419762 C106.572619,243.584127 106.498517,244.559854 106.564498,245.456262 C107.45474,257.501588 108.289659,269.550982 109.161629,281.597325 C109.874229,291.448154 110.473137,301.310169 111.404491,311.14066 C111.926252,316.646732 112.014058,322.267206 114.311735,327.496169 C116.614995,332.737335 116.277474,337.963755 115.017229,343.55779 C112.771322,353.528614 111.620199,363.694686 112.387107,374.001601 C112.651033,377.547066 113.459051,380.984229 113.846819,384.499186 C114.620832,391.514864 114.268085,398.548338 114.346756,405.570117 C114.439637,413.856427 114.596978,422.163583 113.460067,430.410233 C112.503843,437.349643 111.233954,444.255494 111.341047,451.302696 C111.414134,456.095912 113.876257,458.855303 118.557894,458.967672 C124.473385,459.109532 130.394458,459.023094 136.312993,459.011908 C137.419451,459.009874 138.45739,458.697174 139.464368,458.196344 C142.093983,456.888595 142.436579,455.183233 140.524639,453.031955 C139.044117,451.366253 137.262111,450.116468 135.343066,449.052269 C130.649755,446.449482 126.5249,443.720598 128.521092,437.089822 C129.225064,434.750923 128.173928,432.083562 128.307921,429.52552 C128.619049,423.591836 130.789331,418.236776 132.863686,412.774432 C139.261349,395.930806 144.255636,378.736344 145.399145,360.589545 C145.802647,354.194692 145.286977,347.978307 144.003384,341.726331 C143.438481,338.9766 141.803664,336.55584 141.684898,333.777636 C141.548367,330.590633 141.468682,327.39702 141.548367,324.186628 C141.787423,314.54274 142.716238,305.042237 145.26363,295.700881 C147.340015,288.088784 147.887661,280.208222 148.959098,272.417149 C150.36501,262.193113 151.364883,251.960942 151.119737,241.627588 C151.033453,237.99416 150.107683,234.469542 149.817872,230.868656 C149.02508,221.014267 148.077992,211.145642 146.322886,201.444299 C144.737808,192.685634 144.621072,183.94934 144.964175,175.200844 C145.32149,166.092869 146.232034,156.997606 147.352704,147.933358 C147.957703,143.038451 148.253604,141.017338 149.30677,139.655184 C149.46614,139.849922 149.69606,140.01212 149.756458,140.222621 C152.490628,149.795833 157.06974,158.852454 156.261214,169.354107 C155.680577,176.893494 157.990435,184.261024 159.765843,191.559912 C162.280244,201.894283 165.327571,212.079676 169.04791,222.055077 C169.783349,224.025345 170.559392,226.049 169.645803,228.205362 C166.102092,236.566924 167.333915,245.751675 165.181397,254.358821 C164.921024,255.400139 165.107295,256.746531 166.394441,257.127364 C167.622203,257.490911 168.109451,256.254854 168.684504,255.479458 C170.154875,253.495971 171.010096,251.178428 172.040422,248.959017 C172.364239,248.261923 172.590606,247.43619 173.601137,247.651776 C174.660393,247.878039 174.774084,248.718517 174.704042,249.62662 C174.658363,250.21592 174.742108,250.843355 174.569034,251.390962 C172.719523,257.248377 171.540993,263.453067 166.281257,267.57207 C165.770155,267.972734 165.469685,268.644404 165.07735,269.194554 C164.612942,269.845886 164.279989,270.536878 164.856565,271.276682 C165.554954,272.17309 166.36754,271.754631 167.118206,271.363119 C169.988399,269.866225 172.667246,268.068832 174.773576,265.592142 C180.31754,259.073226 185.492008,252.387028 184.273381,242.980081" id="Fill-1" stroke-opacity="0.48" fill-opacity="0.16"></path>
            </g>
        </g>
    </g>
</svg>