<?xml version="1.0" encoding="utf-8"?>
<!-- Generator: Adobe Illustrator 22.0.1, SVG Export Plug-In . SVG Version: 6.00 Build 0)  -->
<svg version="1.1" id="图层_1" xmlns="http://www.w3.org/2000/svg" xmlns:xlink="http://www.w3.org/1999/xlink" x="0px" y="0px"
	 viewBox="0 0 221 503" style="enable-background:new 0 0 221 503;" xml:space="preserve">
<style type="text/css">
	.st0{fill:#2283E2;fill-opacity:8.000000e-02;}
	.st1{fill:url(#SVGID_1_);}
</style>
<ellipse class="st0" cx="110.5" cy="478.5" rx="110.5" ry="24.5"/>
<linearGradient id="SVGID_1_" gradientUnits="userSpaceOnUse" x1="-286.3106" y1="551.9016" x2="-286.3106" y2="550.9016" gradientTransform="matrix(132 0 0 -483 37904 266568.4688)">
	<stop  offset="0" style="stop-color:#FFD4D9"/>
	<stop  offset="1" style="stop-color:#C9E4FB"/>
</linearGradient>
<path class="st1" d="M169.4,113.3c-0.3-7.5-2.3-14.7-5.3-21.6c-2-4.7-5.5-7.7-10.7-8.5c-3.8-0.6-7.6-1.4-11.3-2
	c-1.3-0.2-2.7-0.4-3.9-1.4c2.4-1.9,4.8-3.8,6.3-6.5c0.4-0.7,1.4-1.7-0.3-2.1c-5.5-1.4-6.5-6-7.2-10.5c-1.2-7.3,1.1-14.4,1.8-21.6
	c0.9-9.3,0.9-18.5-4.1-26.8c-4.4-7.6-11.2-11.4-19.9-12C113.5,0.1,112.3,0,111,0c-1.3,0-2.5,0.1-3.8,0.2c-8.7,0.6-15.5,4.5-19.9,12
	c-4.9,8.4-4.9,17.6-4.1,26.8c0.7,7.2,3,14.3,1.8,21.6c-0.7,4.5-1.8,9.1-7.2,10.5c-1.7,0.4-0.7,1.4-0.3,2.1c1.5,2.7,3.8,4.6,6.3,6.5
	c-1.2,1.1-2.6,1.2-3.9,1.4c-3.8,0.7-7.6,1.4-11.3,2c-5.2,0.8-8.6,3.8-10.7,8.5c-3,6.9-4.9,14.2-5.3,21.6c-1,22.8-0.1,45.7-5.5,68.3
	c-2.7,11.3-2.2,23.1-2,34.7c0.1,6.1,0,12.1,0.6,18.2c0.7,7.2-0.2,14.5,2.5,21.6c2.4,6.2,5.9,11.5,11,15.7c1,0.8,2.2,2.1,3.5,1
	c1.3-1.1,0.7-2.8,0-4c-1.5-2.4-2.9-4.9-3.8-7.6c-1.3-3.9-3.1-7.8-2-12.2c1.5,0.6,1.9,1.9,2.5,2.9c1,2.1,1.9,4.4,2.8,6.5
	c0.3,0.7,0.8,1.3,1.7,1c0.6-0.2,0.6-0.7,0.5-1.3c-1.2-7.2-2-14.5-6.6-20.7c-1-1.3-1.3-2.7-1.3-4.3c0.1-8.8,2.2-17.3,4-25.7
	c2.5-11.3,4.6-22.7,5.8-34.3c1.6-15.1,3.8-30.2,6-45.3c0.1-0.8,0-1.7,1.3-1.8c0.8,3.1,2.5,5.8,4.2,8.5c0.9,1.4,1.5,2.9,1.7,4.6
	c0.3,3.7,0.7,7.4,1,11.1c1.2,14.5,0.5,28.5-5.9,42.2c-7.1,15.3-8,32-6.4,48.7c0.4,4.8,1,9.6,1.6,14.4c0.7,5.1,1.8,10.1,2.7,15.2
	c2.5,13.3,6.7,26.3,8.4,39.8c1.3,10.1,2.3,20.1,1,30.3c-1.3,10.6-2,21.3-1.1,31.9c1.5,18.9,5.2,37.5,7.8,56.3
	c1.5,11.2,2.5,22.4,0.9,33.7c-0.6,4.4-1.2,8.8-1.7,13.2c-0.3,2.4,0.7,4.3,3.1,5.2c4.4,1.5,8.9,2.1,13.5,1.5c2.7-0.3,4.1-2.5,3.8-5.1
	c-0.2-1.4-0.4-2.9-0.8-4.3c-3.8-12-4.9-24.4-4.6-36.8c0.4-14.6,2.8-29.1,4.2-43.6c1.5-14.9,2.3-29.7-0.3-44.6
	c-1.2-6.7-2-13.6-0.8-20.4c1.1-6.5,1.7-12.9,1.5-19.5c-0.8-21.7,0.8-43.3,2.1-64.9c0.1-1-0.3-2.6,1.4-2.6c1.7,0,1.3,1.6,1.4,2.6
	c1.3,21.6,2.9,43.2,2.1,64.9c-0.2,6.6,0.4,13,1.5,19.5c1.1,6.8,0.3,13.7-0.8,20.4c-2.6,14.9-1.8,29.7-0.3,44.6
	c1.4,14.5,3.9,29,4.2,43.6c0.3,12.4-0.8,24.8-4.6,36.8c-0.4,1.4-0.7,2.8-0.8,4.3c-0.3,2.7,1.1,4.8,3.8,5.1c4.6,0.6,9.1,0,13.5-1.5
	c2.4-0.8,3.3-2.7,3.1-5.2c-0.5-4.4-1-8.8-1.7-13.2c-1.6-11.3-0.6-22.5,0.9-33.7c2.5-18.8,6.2-37.4,7.8-56.3
	c0.9-10.7,0.2-21.4-1.1-31.9c-1.3-10.2-0.3-20.3,1-30.3c1.7-13.5,5.9-26.5,8.4-39.8c1-5,2.1-10.1,2.7-15.2c0.6-4.8,1.2-9.6,1.6-14.4
	c1.6-16.7,0.7-33.3-6.4-48.7c-6.4-13.7-7.1-27.7-5.9-42.2c0.3-3.7,0.7-7.4,1-11.1c0.1-1.7,0.8-3.2,1.7-4.6c1.7-2.7,3.4-5.4,4.2-8.5
	c1.3,0.1,1.2,1.1,1.3,1.8c2.2,15.1,4.4,30.1,6,45.3c1.2,11.6,3.4,22.9,5.8,34.3c1.8,8.5,3.9,17,4,25.7c0,1.7-0.3,3-1.3,4.3
	c-4.6,6.1-5.4,13.5-6.6,20.7c-0.1,0.5-0.1,1.1,0.5,1.3c0.9,0.3,1.4-0.3,1.7-1c1-2.2,1.8-4.4,2.8-6.5c0.5-1.1,0.9-2.3,2.5-2.9
	c1.2,4.4-0.7,8.3-2,12.2c-0.9,2.7-2.3,5.2-3.8,7.6c-0.7,1.2-1.4,2.9,0,4c1.3,1.2,2.5-0.1,3.5-1c5.2-4.2,8.6-9.5,11-15.7
	c2.7-7.1,1.8-14.4,2.5-21.6c0.6-6.1,0.5-12.1,0.6-18.2c0.3-11.6,0.7-23.3-2-34.7C169.4,159,170.4,136.1,169.4,113.3z"/>
</svg>
